999
DXF file: C:\Users\Juliana\Desktop\SPL\Git\Creo\laserschnittdaten_roessler.dxf
999
Pro/ENGINEER 2021164 by Parametric Technology Corporation
  0
SECTION
  2
HEADER
  9
$ACADVER
  1
AC1015
  9
$DWGCODEPAGE
  3
ANSI_1252
  9
$EXTMAX
 10
210.0
 20
297.0
 30
0.0
  9
$EXTMIN
 10
0.0
 20
0.0
 30
0.0
  9
$LIMMIN
 10
0.0
 20
0.0
  9
$LIMMAX
 10
210.0
 20
297.0
  9
$VIEWCTR
 10
105.0
 20
148.5
  9
$VIEWSIZE
 40
297.0
  9
$CLAYER
  8
0
  9
$LTSCALE
 40
19.36
  9
$CELTYPE
  6
BYLAYER
  9
$DIMSCALE
 40
1.0
  9
$DIMASZ
 40
3.5
  9
$DIMEXO
 40
0.0
  9
$DIMDLI
 40
13.376
  9
$DIMEXE
 40
1.0
  9
$DIMCEN
 40
3.168
  9
$DIMLFAC
 40
1.0
  9
$DIMBLK
  1
_FILLED
  9
$DIMALT
 70
0
  9
$DIMALTF
 40
0.0393700787
  9
$DIMTXT
 40
3.5
  9
$DIMTOL
 70
1
  9
$DIMLIM
 70
0
  9
$DIMTFAC
 40
1.0
  9
$DIMTP
 40
0.001
  9
$DIMTM
 40
0.001
  9
$DIMGAP
 40
0.625
  9
$DIMDSEP
 70
46
  9
$AUNITS
 70
0
  9
$PDMODE
 70
3
  9
$PDSIZE
 40
1.5
  9
$HANDSEED
  5
42C
  9
$TILEMODE
 70
1
  9
$MEASUREMENT
 70
1
  9
$INSUNITS
 70
4
  0
ENDSEC
  0
SECTION
  2
CLASSES
  0
CLASS
  1
ACDBDICTIONARYWDFLT
  2
AcDbDictionaryWithDefault
  3
AutoCAD 2000
 90
0
280
0
281
0
  0
CLASS
  1
ACDBPLACEHOLDER
  2
AcDbPlaceHolder
  3
AutoCAD 2000
 90
0
280
0
281
0
  0
CLASS
  1
LAYOUT
  2
AcDbLayout
  3
AutoCAD 2000
 90
0
280
0
281
0
  0
ENDSEC
  0
SECTION
  2
TABLES
  0
TABLE
  2
VPORT
  5
8
100
AcDbSymbolTable
 70
2
  0
VPORT
  5
1F4
100
AcDbSymbolTableRecord
100
AcDbViewportTableRecord
  2
*ACTIVE
 70
0
 10
0.0
 20
0.0
 11
1.0
 21
1.0
 12
105.0
 22
148.5
 13
0.0
 23
0.0
 14
1.0
 24
1.0
 15
0.0
 25
0.0
 16
0.0
 26
0.0
 36
1.0
 17
0.0
 27
0.0
 37
0.0
 40
297.0
 41
0.7070707071
 42
50.0
 43
0.0
 44
0.0
 50
0.0
 51
0.0
 71
0
 72
100
 73
1
 74
1
 75
0
 76
0
 77
0
 78
0
  0
ENDTAB
  0
TABLE
  2
LTYPE
  5
5
100
AcDbSymbolTable
 70
6
  0
LTYPE
  5
14
100
AcDbSymbolTableRecord
100
AcDbLinetypeTableRecord
  2
BYBLOCK
 70
0
  3

 72
65
 73
0
 40
0.0
  0
LTYPE
  5
15
100
AcDbSymbolTableRecord
100
AcDbLinetypeTableRecord
  2
BYLAYER
 70
0
  3

 72
65
 73
0
 40
0.0
  0
LTYPE
  5
16
100
AcDbSymbolTableRecord
100
AcDbLinetypeTableRecord
  2
CONTINUOUS
 70
64
  3
Solid line
 72
65
 73
0
 40
0.0
  0
LTYPE
  5
1F5
100
AcDbSymbolTableRecord
100
AcDbLinetypeTableRecord
  2
CENTER
 70
64
  3
____ _ ____ _ ____ _ ____ _ ____ _ ____ _ ____
 72
65
 73
4
 40
0.6
 49
0.375
 74
0
 49
-0.075
 74
0
 49
0.075
 74
0
 49
-0.075
 74
0
  0
LTYPE
  5
1F6
100
AcDbSymbolTableRecord
100
AcDbLinetypeTableRecord
  2
HIDDEN
 70
64
  3
- - - - - - - - - - - - - - - - - - - -
 72
65
 73
2
 40
0.2
 49
0.1
 74
0
 49
-0.1
 74
0
  0
LTYPE
  5
1F7
100
AcDbSymbolTableRecord
100
AcDbLinetypeTableRecord
  2
PHANTOM
 70
64
  3
_____ _ _ _____ _ _ _____ _ _ _____
 72
65
 73
6
 40
0.8
 49
0.45
 74
0
 49
-0.05
 74
0
 49
0.1
 74
0
 49
-0.05
 74
0
 49
0.1
 74
0
 49
-0.05
 74
0
  0
LTYPE
  5
1F8
100
AcDbSymbolTableRecord
100
AcDbLinetypeTableRecord
  2
DOT
 70
64
  3
. . . . . . . . . . . . . . . . . . . .
 72
65
 73
2
 40
0.2
 49
0.1
 74
0
 49
-0.1
 74
0
  0
LTYPE
  5
1F9
100
AcDbSymbolTableRecord
100
AcDbLinetypeTableRecord
  2
DASHED
 70
64
  3
- - - - - - - - - - - - - - - - - - - -
 72
65
 73
2
 40
0.2
 49
0.1
 74
0
 49
-0.1
 74
0
  0
ENDTAB
  0
TABLE
  2
LAYER
  5
2
100
AcDbSymbolTable
 70
36
  0
LAYER
  5
10
100
AcDbSymbolTableRecord
100
AcDbLayerTableRecord
  2
0
 70
0
 62
7
  6
CONTINUOUS
370
-3
390
F
  0
LAYER
  5
1FA
100
AcDbSymbolTableRecord
100
AcDbLayerTableRecord
  2
DEFAULT_1
 70
0
 62
7
  6
CENTER
370
-3
390
F
  0
LAYER
  5
1FB
100
AcDbSymbolTableRecord
100
AcDbLayerTableRecord
  2
DEFAULT_2
 70
0
 62
8
  6
HIDDEN
370
-3
390
F
  0
LAYER
  5
1FC
100
AcDbSymbolTableRecord
100
AcDbLayerTableRecord
  2
DEFAULT_3
 70
0
 62
7
  6
PHANTOM
370
-3
390
F
  0
LAYER
  5
1FD
100
AcDbSymbolTableRecord
100
AcDbLayerTableRecord
  2
S-EBENEN
 70
0
 62
7
  6
CONTINUOUS
370
-3
390
F
  0
LAYER
  5
1FE
100
AcDbSymbolTableRecord
100
AcDbLayerTableRecord
  2
S-KOORDINATENSYSTEM
 70
0
 62
7
  6
CONTINUOUS
370
-3
390
F
  0
LAYER
  5
1FF
100
AcDbSymbolTableRecord
100
AcDbLayerTableRecord
  2
_ACHSEN
 70
0
 62
7
  6
CONTINUOUS
370
-3
390
F
  0
LAYER
  5
200
100
AcDbSymbolTableRecord
100
AcDbLayerTableRecord
  2
_EBENEN
 70
0
 62
7
  6
CONTINUOUS
370
-3
390
F
  0
LAYER
  5
201
100
AcDbSymbolTableRecord
100
AcDbLayerTableRecord
  2
_FLAECHEN
 70
0
 62
7
  6
CONTINUOUS
370
-3
390
F
  0
LAYER
  5
202
100
AcDbSymbolTableRecord
100
AcDbLayerTableRecord
  2
_GEWINDE
 70
0
 62
7
  6
CONTINUOUS
370
-3
390
F
  0
LAYER
  5
203
100
AcDbSymbolTableRecord
100
AcDbLayerTableRecord
  2
_KOORD_SYS
 70
0
 62
7
  6
CONTINUOUS
370
-3
390
F
  0
LAYER
  5
204
100
AcDbSymbolTableRecord
100
AcDbLayerTableRecord
  2
_KOPIE_GEOM
 70
0
 62
7
  6
CONTINUOUS
370
-3
390
F
  0
LAYER
  5
205
100
AcDbSymbolTableRecord
100
AcDbLayerTableRecord
  2
_KOSMETIK
 70
0
 62
7
  6
CONTINUOUS
370
-3
390
F
  0
LAYER
  5
206
100
AcDbSymbolTableRecord
100
AcDbLayerTableRecord
  2
_KURVEN
 70
0
 62
7
  6
CONTINUOUS
370
-3
390
F
  0
LAYER
  5
207
100
AcDbSymbolTableRecord
100
AcDbLayerTableRecord
  2
_NOTIZEN
 70
0
 62
7
  6
CONTINUOUS
370
-3
390
F
  0
LAYER
  5
208
100
AcDbSymbolTableRecord
100
AcDbLayerTableRecord
  2
_PUNKTE
 70
0
 62
7
  6
CONTINUOUS
370
-3
390
F
  0
LAYER
  5
209
100
AcDbSymbolTableRecord
100
AcDbLayerTableRecord
  2
_SAMMELFLAECHEN
 70
0
 62
7
  6
CONTINUOUS
370
-3
390
F
  0
LAYER
  5
20A
100
AcDbSymbolTableRecord
100
AcDbLayerTableRecord
  2
_SYMBOLE
 70
0
 62
7
  6
CONTINUOUS
370
-3
390
F
  0
LAYER
  5
20B
100
AcDbSymbolTableRecord
100
AcDbLayerTableRecord
  2
_TOLERANZEN
 70
0
 62
7
  6
CONTINUOUS
370
-3
390
F
  0
LAYER
  5
20C
100
AcDbSymbolTableRecord
100
AcDbLayerTableRecord
  2
_ZEICH_ELEMENTE
 70
0
 62
7
  6
CONTINUOUS
370
-3
390
F
  0
ENDTAB
  0
TABLE
  2
STYLE
  5
3
100
AcDbSymbolTable
 70
1
  0
STYLE
  5
11
100
AcDbSymbolTableRecord
100
AcDbTextStyleTableRecord
  2
STANDARD
 70
0
 40
0.0
 41
0.8
 50
0.0
 71
0
 42
0.2
  3
txt
  4

  0
STYLE
  5
20D
100
AcDbSymbolTableRecord
100
AcDbTextStyleTableRecord
  2
TEXTSTYLE_1
 70
0
 40
0.0
 41
0.8
 50
0.0
 71
0
 42
0.2
  3
gdt
  4

  0
ENDTAB
  0
TABLE
  2
VIEW
  5
6
100
AcDbSymbolTable
 70
0
  0
ENDTAB
  0
TABLE
  2
UCS
  5
7
100
AcDbSymbolTable
 70
0
  0
ENDTAB
  0
TABLE
  2
APPID
  5
9
100
AcDbSymbolTable
 70
1
  0
APPID
  5
20E
100
AcDbSymbolTableRecord
100
AcDbRegAppTableRecord
  2
ACAD
 70
0
  0
ENDTAB
  0
TABLE
  2
BLOCK_RECORD
  5
1
100
AcDbSymbolTable
 70
0
  0
BLOCK_RECORD
  5
20F
100
AcDbSymbolTableRecord
100
AcDbBlockTableRecord
  2
*Model_Space
  0
BLOCK_RECORD
  5
210
100
AcDbSymbolTableRecord
100
AcDbBlockTableRecord
  2
*Paper_Space
  0
BLOCK_RECORD
  5
211
100
AcDbSymbolTableRecord
100
AcDbBlockTableRecord
  2
_FILLED
  0
ENDTAB
  0
TABLE
  2
DIMSTYLE
  5
A
100
AcDbSymbolTable
 70
1
100
AcDbDimStyleTable
 71
0
  0
DIMSTYLE
105
212
100
AcDbSymbolTableRecord
100
AcDbDimStyleTableRecord
  2
STANDARD
 70
0
  3

  4

 40
1.0
 41
3.5
 42
0.0
 43
0.38
 44
1.0
 45
0.0
 46
0.0
 47
0.001
 48
0.001
140
3.5
141
0.09
142
0.0
143
25.4
144
1.0
145
0.0
146
1.0
147
0.625
 71
1
 72
0
 73
0
 74
0
 75
0
 76
0
 77
1
 78
8
 79
2
170
0
171
2
172
0
173
0
174
0
175
0
176
0
177
0
178
0
270
2
179
3
271
3
272
3
273
2
274
2
275
0
280
0
281
0
282
0
283
1
284
8
285
0
286
0
287
3
288
0
340
11
278
46
341
211
342
211
343
211
344
211
  0
ENDTAB
  0
ENDSEC
  0
SECTION
  2
BLOCKS
  0
BLOCK
  5
20
100
AcDbEntity
  8
0
100
AcDbBlockBegin
  2
*Model_Space
 70
0
 10
0.0
 20
0.0
 30
0.0
  3
*Model_Space
  1

  0
ENDBLK
  5
21
100
AcDbEntity
  8
0
100
AcDbBlockEnd
  0
BLOCK
  5
1C
100
AcDbEntity
  8
0
100
AcDbBlockBegin
  2
*Paper_Space
 70
0
 10
0.0
 20
0.0
 30
0.0
  3
*Paper_Space
  1

  0
ENDBLK
  5
1D
100
AcDbEntity
  8
0
100
AcDbBlockEnd
  0
BLOCK
  5
213
100
AcDbEntity
  8
0
100
AcDbBlockBegin
  2
_FILLED
 70
64
 10
0.0
 20
0.0
  3
_FILLED
  1

  0
SOLID
  5
214
100
AcDbEntity
  8
0
  6
BYBLOCK
 62
0
100
AcDbTrace
 10
0.0
 20
0.0
 11
-1.0
 21
0.1285714286
 12
-1.0
 22
-0.1285714286
 13
-1.0
 23
-0.1285714286
  0
ENDBLK
  5
215
100
AcDbEntity
  8
0
  6
BYBLOCK
 62
0
100
AcDbBlockEnd
  0
ENDSEC
  0
SECTION
  2
ENTITIES
  0
LINE
  5
216
100
AcDbEntity
  8
0
100
AcDbLine
 62
7
  6
CONTINUOUS
 10
72.1827810465
 20
278.9755690475
 11
72.1827810465
 21
100.9755690475
  0
LINE
  5
217
100
AcDbEntity
  8
0
100
AcDbLine
 62
7
  6
CONTINUOUS
 10
82.1827810465
 20
90.9755690475
 11
420.1827810465
 21
90.9755690475
  0
LINE
  5
218
100
AcDbEntity
  8
0
100
AcDbLine
 62
7
  6
CONTINUOUS
 10
420.1827810465
 20
288.9755690475
 11
82.1827810465
 21
288.9755690475
  0
LINE
  5
219
100
AcDbEntity
  8
0
100
AcDbLine
 62
7
  6
CONTINUOUS
 10
430.1827810465
 20
100.9755690475
 11
430.1827810465
 21
278.9755690475
  0
LINE
  5
21A
100
AcDbEntity
  8
0
100
AcDbLine
 62
7
  6
CONTINUOUS
 10
372.0063060035
 20
-245.6885489586
 11
427.0063060035
 21
-245.6885489586
  0
LINE
  5
21B
100
AcDbEntity
  8
0
100
AcDbLine
 62
7
  6
CONTINUOUS
 10
418.0063060035
 20
-232.7885489586
 11
422.2063060035
 21
-232.7885489586
  0
LINE
  5
21C
100
AcDbEntity
  8
0
100
AcDbLine
 62
7
  6
CONTINUOUS
 10
418.0063060035
 20
-230.5885489586
 11
422.2063060035
 21
-230.5885489586
  0
LINE
  5
21D
100
AcDbEntity
  8
0
100
AcDbLine
 62
7
  6
CONTINUOUS
 10
418.0063060035
 20
-222.7885489586
 11
422.2063060035
 21
-222.7885489586
  0
LINE
  5
21E
100
AcDbEntity
  8
0
100
AcDbLine
 62
7
  6
CONTINUOUS
 10
418.0063060035
 20
-220.5885489586
 11
422.2063060035
 21
-220.5885489586
  0
LINE
  5
21F
100
AcDbEntity
  8
0
100
AcDbLine
 62
7
  6
CONTINUOUS
 10
418.0063060035
 20
-212.7885489586
 11
422.2063060035
 21
-212.7885489586
  0
LINE
  5
220
100
AcDbEntity
  8
0
100
AcDbLine
 62
7
  6
CONTINUOUS
 10
418.0063060035
 20
-210.5885489586
 11
422.2063060035
 21
-210.5885489586
  0
LINE
  5
221
100
AcDbEntity
  8
0
100
AcDbLine
 62
7
  6
CONTINUOUS
 10
418.0063060035
 20
-202.7885489586
 11
422.2063060035
 21
-202.7885489586
  0
LINE
  5
222
100
AcDbEntity
  8
0
100
AcDbLine
 62
7
  6
CONTINUOUS
 10
418.0063060035
 20
-200.5885489586
 11
422.2063060035
 21
-200.5885489586
  0
LINE
  5
223
100
AcDbEntity
  8
0
100
AcDbLine
 62
7
  6
CONTINUOUS
 10
418.0063060035
 20
-192.7885489586
 11
422.2063060035
 21
-192.7885489586
  0
LINE
  5
224
100
AcDbEntity
  8
0
100
AcDbLine
 62
7
  6
CONTINUOUS
 10
418.0063060035
 20
-190.5885489586
 11
422.2063060035
 21
-190.5885489586
  0
LINE
  5
225
100
AcDbEntity
  8
0
100
AcDbLine
 62
7
  6
CONTINUOUS
 10
418.0063060035
 20
-182.7885489586
 11
422.2063060035
 21
-182.7885489586
  0
LINE
  5
226
100
AcDbEntity
  8
0
100
AcDbLine
 62
7
  6
CONTINUOUS
 10
418.0063060035
 20
-180.5885489586
 11
422.2063060035
 21
-180.5885489586
  0
LINE
  5
227
100
AcDbEntity
  8
0
100
AcDbLine
 62
7
  6
CONTINUOUS
 10
418.0063060035
 20
-172.7885489586
 11
422.2063060035
 21
-172.7885489586
  0
LINE
  5
228
100
AcDbEntity
  8
0
100
AcDbLine
 62
7
  6
CONTINUOUS
 10
418.0063060035
 20
-170.5885489586
 11
422.2063060035
 21
-170.5885489586
  0
LINE
  5
229
100
AcDbEntity
  8
0
100
AcDbLine
 62
7
  6
CONTINUOUS
 10
418.0063060035
 20
-162.7885489586
 11
422.2063060035
 21
-162.7885489586
  0
LINE
  5
22A
100
AcDbEntity
  8
0
100
AcDbLine
 62
7
  6
CONTINUOUS
 10
418.0063060035
 20
-160.5885489586
 11
422.2063060035
 21
-160.5885489586
  0
LINE
  5
22B
100
AcDbEntity
  8
0
100
AcDbLine
 62
7
  6
CONTINUOUS
 10
418.0063060035
 20
-152.7885489586
 11
422.2063060035
 21
-152.7885489586
  0
LINE
  5
22C
100
AcDbEntity
  8
0
100
AcDbLine
 62
7
  6
CONTINUOUS
 10
418.0063060035
 20
-150.5885489586
 11
422.2063060035
 21
-150.5885489586
  0
LINE
  5
22D
100
AcDbEntity
  8
0
100
AcDbLine
 62
7
  6
CONTINUOUS
 10
418.0063060035
 20
-142.7885489586
 11
422.2063060035
 21
-142.7885489586
  0
LINE
  5
22E
100
AcDbEntity
  8
0
100
AcDbLine
 62
7
  6
CONTINUOUS
 10
418.0063060035
 20
-140.5885489586
 11
422.2063060035
 21
-140.5885489586
  0
LINE
  5
22F
100
AcDbEntity
  8
0
100
AcDbLine
 62
7
  6
CONTINUOUS
 10
418.0063060035
 20
-132.7885489586
 11
422.2063060035
 21
-132.7885489586
  0
LINE
  5
230
100
AcDbEntity
  8
0
100
AcDbLine
 62
7
  6
CONTINUOUS
 10
418.0063060035
 20
-130.5885489586
 11
422.2063060035
 21
-130.5885489586
  0
LINE
  5
231
100
AcDbEntity
  8
0
100
AcDbLine
 62
7
  6
CONTINUOUS
 10
418.0063060035
 20
-122.7885489586
 11
422.2063060035
 21
-122.7885489586
  0
LINE
  5
232
100
AcDbEntity
  8
0
100
AcDbLine
 62
7
  6
CONTINUOUS
 10
418.0063060035
 20
-120.5885489586
 11
422.2063060035
 21
-120.5885489586
  0
LINE
  5
233
100
AcDbEntity
  8
0
100
AcDbLine
 62
7
  6
CONTINUOUS
 10
418.0063060035
 20
-112.7885489586
 11
422.2063060035
 21
-112.7885489586
  0
LINE
  5
234
100
AcDbEntity
  8
0
100
AcDbLine
 62
7
  6
CONTINUOUS
 10
418.0063060035
 20
-110.5885489586
 11
422.2063060035
 21
-110.5885489586
  0
LINE
  5
235
100
AcDbEntity
  8
0
100
AcDbLine
 62
7
  6
CONTINUOUS
 10
372.0063060035
 20
82.3114510414
 11
372.0063060035
 21
-245.6885489586
  0
LINE
  5
236
100
AcDbEntity
  8
0
100
AcDbLine
 62
7
  6
CONTINUOUS
 10
418.0063060035
 20
-102.7885489586
 11
422.2063060035
 21
-102.7885489586
  0
LINE
  5
237
100
AcDbEntity
  8
0
100
AcDbLine
 62
7
  6
CONTINUOUS
 10
418.0063060035
 20
-100.5885489586
 11
422.2063060035
 21
-100.5885489586
  0
LINE
  5
238
100
AcDbEntity
  8
0
100
AcDbLine
 62
7
  6
CONTINUOUS
 10
418.0063060035
 20
-92.7885489586
 11
422.2063060035
 21
-92.7885489586
  0
LINE
  5
239
100
AcDbEntity
  8
0
100
AcDbLine
 62
7
  6
CONTINUOUS
 10
418.0063060035
 20
-90.5885489586
 11
422.2063060035
 21
-90.5885489586
  0
LINE
  5
23A
100
AcDbEntity
  8
0
100
AcDbLine
 62
7
  6
CONTINUOUS
 10
418.0063060035
 20
-82.7885489586
 11
422.2063060035
 21
-82.7885489586
  0
LINE
  5
23B
100
AcDbEntity
  8
0
100
AcDbLine
 62
7
  6
CONTINUOUS
 10
418.0063060035
 20
-80.5885489586
 11
422.2063060035
 21
-80.5885489586
  0
LINE
  5
23C
100
AcDbEntity
  8
0
100
AcDbLine
 62
7
  6
CONTINUOUS
 10
418.0063060035
 20
-72.7885489586
 11
422.2063060035
 21
-72.7885489586
  0
LINE
  5
23D
100
AcDbEntity
  8
0
100
AcDbLine
 62
7
  6
CONTINUOUS
 10
418.0063060035
 20
-70.5885489586
 11
422.2063060035
 21
-70.5885489586
  0
LINE
  5
23E
100
AcDbEntity
  8
0
100
AcDbLine
 62
7
  6
CONTINUOUS
 10
418.0063060035
 20
-62.7885489586
 11
422.2063060035
 21
-62.7885489586
  0
LINE
  5
23F
100
AcDbEntity
  8
0
100
AcDbLine
 62
7
  6
CONTINUOUS
 10
418.0063060035
 20
-60.5885489586
 11
422.2063060035
 21
-60.5885489586
  0
LINE
  5
240
100
AcDbEntity
  8
0
100
AcDbLine
 62
7
  6
CONTINUOUS
 10
418.0063060035
 20
-232.7885489586
 11
418.0063060035
 21
-230.5885489586
  0
LINE
  5
241
100
AcDbEntity
  8
0
100
AcDbLine
 62
7
  6
CONTINUOUS
 10
418.0063060035
 20
-222.7885489586
 11
418.0063060035
 21
-220.5885489586
  0
LINE
  5
242
100
AcDbEntity
  8
0
100
AcDbLine
 62
7
  6
CONTINUOUS
 10
418.0063060035
 20
-212.7885489586
 11
418.0063060035
 21
-210.5885489586
  0
LINE
  5
243
100
AcDbEntity
  8
0
100
AcDbLine
 62
7
  6
CONTINUOUS
 10
418.0063060035
 20
-202.7885489586
 11
418.0063060035
 21
-200.5885489586
  0
LINE
  5
244
100
AcDbEntity
  8
0
100
AcDbLine
 62
7
  6
CONTINUOUS
 10
418.0063060035
 20
-192.7885489586
 11
418.0063060035
 21
-190.5885489586
  0
LINE
  5
245
100
AcDbEntity
  8
0
100
AcDbLine
 62
7
  6
CONTINUOUS
 10
418.0063060035
 20
-182.7885489586
 11
418.0063060035
 21
-180.5885489586
  0
LINE
  5
246
100
AcDbEntity
  8
0
100
AcDbLine
 62
7
  6
CONTINUOUS
 10
418.0063060035
 20
-172.7885489586
 11
418.0063060035
 21
-170.5885489586
  0
LINE
  5
247
100
AcDbEntity
  8
0
100
AcDbLine
 62
7
  6
CONTINUOUS
 10
418.0063060035
 20
-162.7885489586
 11
418.0063060035
 21
-160.5885489586
  0
LINE
  5
248
100
AcDbEntity
  8
0
100
AcDbLine
 62
7
  6
CONTINUOUS
 10
418.0063060035
 20
-152.7885489586
 11
418.0063060035
 21
-150.5885489586
  0
LINE
  5
249
100
AcDbEntity
  8
0
100
AcDbLine
 62
7
  6
CONTINUOUS
 10
418.0063060035
 20
-142.7885489586
 11
418.0063060035
 21
-140.5885489586
  0
LINE
  5
24A
100
AcDbEntity
  8
0
100
AcDbLine
 62
7
  6
CONTINUOUS
 10
418.0063060035
 20
-132.7885489586
 11
418.0063060035
 21
-130.5885489586
  0
LINE
  5
24B
100
AcDbEntity
  8
0
100
AcDbLine
 62
7
  6
CONTINUOUS
 10
418.0063060035
 20
-122.7885489586
 11
418.0063060035
 21
-120.5885489586
  0
LINE
  5
24C
100
AcDbEntity
  8
0
100
AcDbLine
 62
7
  6
CONTINUOUS
 10
418.0063060035
 20
-112.7885489586
 11
418.0063060035
 21
-110.5885489586
  0
LINE
  5
24D
100
AcDbEntity
  8
0
100
AcDbLine
 62
7
  6
CONTINUOUS
 10
418.0063060035
 20
-102.7885489586
 11
418.0063060035
 21
-100.5885489586
  0
LINE
  5
24E
100
AcDbEntity
  8
0
100
AcDbLine
 62
7
  6
CONTINUOUS
 10
418.0063060035
 20
-92.7885489586
 11
418.0063060035
 21
-90.5885489586
  0
LINE
  5
24F
100
AcDbEntity
  8
0
100
AcDbLine
 62
7
  6
CONTINUOUS
 10
418.0063060035
 20
-82.7885489586
 11
418.0063060035
 21
-80.5885489586
  0
LINE
  5
250
100
AcDbEntity
  8
0
100
AcDbLine
 62
7
  6
CONTINUOUS
 10
418.0063060035
 20
-72.7885489586
 11
418.0063060035
 21
-70.5885489586
  0
LINE
  5
251
100
AcDbEntity
  8
0
100
AcDbLine
 62
7
  6
CONTINUOUS
 10
418.0063060035
 20
-62.7885489586
 11
418.0063060035
 21
-60.5885489586
  0
LINE
  5
252
100
AcDbEntity
  8
0
100
AcDbLine
 62
7
  6
CONTINUOUS
 10
418.0063060035
 20
-52.7885489586
 11
418.0063060035
 21
-50.5885489586
  0
LINE
  5
253
100
AcDbEntity
  8
0
100
AcDbLine
 62
7
  6
CONTINUOUS
 10
418.0063060035
 20
-42.7885489586
 11
418.0063060035
 21
-40.5885489586
  0
LINE
  5
254
100
AcDbEntity
  8
0
100
AcDbLine
 62
7
  6
CONTINUOUS
 10
418.0063060035
 20
-32.7885489586
 11
418.0063060035
 21
-30.5885489586
  0
LINE
  5
255
100
AcDbEntity
  8
0
100
AcDbLine
 62
7
  6
CONTINUOUS
 10
418.0063060035
 20
-22.7885489586
 11
418.0063060035
 21
-20.5885489586
  0
LINE
  5
256
100
AcDbEntity
  8
0
100
AcDbLine
 62
7
  6
CONTINUOUS
 10
418.0063060035
 20
-12.7885489586
 11
418.0063060035
 21
-10.5885489586
  0
LINE
  5
257
100
AcDbEntity
  8
0
100
AcDbLine
 62
7
  6
CONTINUOUS
 10
418.0063060035
 20
-2.7885489586
 11
418.0063060035
 21
-0.5885489586
  0
LINE
  5
258
100
AcDbEntity
  8
0
100
AcDbLine
 62
7
  6
CONTINUOUS
 10
418.0063060035
 20
7.2114510414
 11
418.0063060035
 21
9.4114510414
  0
LINE
  5
259
100
AcDbEntity
  8
0
100
AcDbLine
 62
7
  6
CONTINUOUS
 10
418.0063060035
 20
17.2114510414
 11
418.0063060035
 21
19.4114510414
  0
LINE
  5
25A
100
AcDbEntity
  8
0
100
AcDbLine
 62
7
  6
CONTINUOUS
 10
418.0063060035
 20
27.2114510414
 11
418.0063060035
 21
29.4114510414
  0
LINE
  5
25B
100
AcDbEntity
  8
0
100
AcDbLine
 62
7
  6
CONTINUOUS
 10
418.0063060035
 20
37.2114510414
 11
418.0063060035
 21
39.4114510414
  0
LINE
  5
25C
100
AcDbEntity
  8
0
100
AcDbLine
 62
7
  6
CONTINUOUS
 10
418.0063060035
 20
47.2114510414
 11
418.0063060035
 21
49.4114510414
  0
LINE
  5
25D
100
AcDbEntity
  8
0
100
AcDbLine
 62
7
  6
CONTINUOUS
 10
418.0063060035
 20
57.2114510414
 11
418.0063060035
 21
59.4114510414
  0
LINE
  5
25E
100
AcDbEntity
  8
0
100
AcDbLine
 62
7
  6
CONTINUOUS
 10
418.0063060035
 20
67.2114510414
 11
418.0063060035
 21
69.4114510414
  0
LINE
  5
25F
100
AcDbEntity
  8
0
100
AcDbLine
 62
7
  6
CONTINUOUS
 10
422.2063060035
 20
-232.7885489586
 11
422.2063060035
 21
-230.5885489586
  0
LINE
  5
260
100
AcDbEntity
  8
0
100
AcDbLine
 62
7
  6
CONTINUOUS
 10
422.2063060035
 20
-222.7885489586
 11
422.2063060035
 21
-220.5885489586
  0
LINE
  5
261
100
AcDbEntity
  8
0
100
AcDbLine
 62
7
  6
CONTINUOUS
 10
422.2063060035
 20
-212.7885489586
 11
422.2063060035
 21
-210.5885489586
  0
LINE
  5
262
100
AcDbEntity
  8
0
100
AcDbLine
 62
7
  6
CONTINUOUS
 10
422.2063060035
 20
-202.7885489586
 11
422.2063060035
 21
-200.5885489586
  0
LINE
  5
263
100
AcDbEntity
  8
0
100
AcDbLine
 62
7
  6
CONTINUOUS
 10
422.2063060035
 20
-192.7885489586
 11
422.2063060035
 21
-190.5885489586
  0
LINE
  5
264
100
AcDbEntity
  8
0
100
AcDbLine
 62
7
  6
CONTINUOUS
 10
422.2063060035
 20
-182.7885489586
 11
422.2063060035
 21
-180.5885489586
  0
LINE
  5
265
100
AcDbEntity
  8
0
100
AcDbLine
 62
7
  6
CONTINUOUS
 10
422.2063060035
 20
-172.7885489586
 11
422.2063060035
 21
-170.5885489586
  0
LINE
  5
266
100
AcDbEntity
  8
0
100
AcDbLine
 62
7
  6
CONTINUOUS
 10
422.2063060035
 20
-162.7885489586
 11
422.2063060035
 21
-160.5885489586
  0
LINE
  5
267
100
AcDbEntity
  8
0
100
AcDbLine
 62
7
  6
CONTINUOUS
 10
422.2063060035
 20
-152.7885489586
 11
422.2063060035
 21
-150.5885489586
  0
LINE
  5
268
100
AcDbEntity
  8
0
100
AcDbLine
 62
7
  6
CONTINUOUS
 10
422.2063060035
 20
-142.7885489586
 11
422.2063060035
 21
-140.5885489586
  0
LINE
  5
269
100
AcDbEntity
  8
0
100
AcDbLine
 62
7
  6
CONTINUOUS
 10
422.2063060035
 20
-132.7885489586
 11
422.2063060035
 21
-130.5885489586
  0
LINE
  5
26A
100
AcDbEntity
  8
0
100
AcDbLine
 62
7
  6
CONTINUOUS
 10
422.2063060035
 20
-122.7885489586
 11
422.2063060035
 21
-120.5885489586
  0
LINE
  5
26B
100
AcDbEntity
  8
0
100
AcDbLine
 62
7
  6
CONTINUOUS
 10
422.2063060035
 20
-112.7885489586
 11
422.2063060035
 21
-110.5885489586
  0
LINE
  5
26C
100
AcDbEntity
  8
0
100
AcDbLine
 62
7
  6
CONTINUOUS
 10
422.2063060035
 20
-102.7885489586
 11
422.2063060035
 21
-100.5885489586
  0
LINE
  5
26D
100
AcDbEntity
  8
0
100
AcDbLine
 62
7
  6
CONTINUOUS
 10
422.2063060035
 20
-92.7885489586
 11
422.2063060035
 21
-90.5885489586
  0
LINE
  5
26E
100
AcDbEntity
  8
0
100
AcDbLine
 62
7
  6
CONTINUOUS
 10
422.2063060035
 20
-82.7885489586
 11
422.2063060035
 21
-80.5885489586
  0
LINE
  5
26F
100
AcDbEntity
  8
0
100
AcDbLine
 62
7
  6
CONTINUOUS
 10
422.2063060035
 20
-72.7885489586
 11
422.2063060035
 21
-70.5885489586
  0
LINE
  5
270
100
AcDbEntity
  8
0
100
AcDbLine
 62
7
  6
CONTINUOUS
 10
422.2063060035
 20
-62.7885489586
 11
422.2063060035
 21
-60.5885489586
  0
LINE
  5
271
100
AcDbEntity
  8
0
100
AcDbLine
 62
7
  6
CONTINUOUS
 10
422.2063060035
 20
-52.7885489586
 11
422.2063060035
 21
-50.5885489586
  0
LINE
  5
272
100
AcDbEntity
  8
0
100
AcDbLine
 62
7
  6
CONTINUOUS
 10
422.2063060035
 20
-42.7885489586
 11
422.2063060035
 21
-40.5885489586
  0
LINE
  5
273
100
AcDbEntity
  8
0
100
AcDbLine
 62
7
  6
CONTINUOUS
 10
422.2063060035
 20
-32.7885489586
 11
422.2063060035
 21
-30.5885489586
  0
LINE
  5
274
100
AcDbEntity
  8
0
100
AcDbLine
 62
7
  6
CONTINUOUS
 10
422.2063060035
 20
-22.7885489586
 11
422.2063060035
 21
-20.5885489586
  0
LINE
  5
275
100
AcDbEntity
  8
0
100
AcDbLine
 62
7
  6
CONTINUOUS
 10
422.2063060035
 20
-12.7885489586
 11
422.2063060035
 21
-10.5885489586
  0
LINE
  5
276
100
AcDbEntity
  8
0
100
AcDbLine
 62
7
  6
CONTINUOUS
 10
422.2063060035
 20
-2.7885489586
 11
422.2063060035
 21
-0.5885489586
  0
LINE
  5
277
100
AcDbEntity
  8
0
100
AcDbLine
 62
7
  6
CONTINUOUS
 10
422.2063060035
 20
7.2114510414
 11
422.2063060035
 21
9.4114510414
  0
LINE
  5
278
100
AcDbEntity
  8
0
100
AcDbLine
 62
7
  6
CONTINUOUS
 10
422.2063060035
 20
17.2114510414
 11
422.2063060035
 21
19.4114510414
  0
LINE
  5
279
100
AcDbEntity
  8
0
100
AcDbLine
 62
7
  6
CONTINUOUS
 10
422.2063060035
 20
27.2114510414
 11
422.2063060035
 21
29.4114510414
  0
LINE
  5
27A
100
AcDbEntity
  8
0
100
AcDbLine
 62
7
  6
CONTINUOUS
 10
422.2063060035
 20
37.2114510414
 11
422.2063060035
 21
39.4114510414
  0
LINE
  5
27B
100
AcDbEntity
  8
0
100
AcDbLine
 62
7
  6
CONTINUOUS
 10
422.2063060035
 20
47.2114510414
 11
422.2063060035
 21
49.4114510414
  0
LINE
  5
27C
100
AcDbEntity
  8
0
100
AcDbLine
 62
7
  6
CONTINUOUS
 10
422.2063060035
 20
57.2114510414
 11
422.2063060035
 21
59.4114510414
  0
LINE
  5
27D
100
AcDbEntity
  8
0
100
AcDbLine
 62
7
  6
CONTINUOUS
 10
422.2063060035
 20
67.2114510414
 11
422.2063060035
 21
69.4114510414
  0
LINE
  5
27E
100
AcDbEntity
  8
0
100
AcDbLine
 62
7
  6
CONTINUOUS
 10
418.0063060035
 20
-52.7885489586
 11
422.2063060035
 21
-52.7885489586
  0
LINE
  5
27F
100
AcDbEntity
  8
0
100
AcDbLine
 62
7
  6
CONTINUOUS
 10
418.0063060035
 20
-50.5885489586
 11
422.2063060035
 21
-50.5885489586
  0
LINE
  5
280
100
AcDbEntity
  8
0
100
AcDbLine
 62
7
  6
CONTINUOUS
 10
427.0063060035
 20
-245.6885489586
 11
427.0063060035
 21
82.3114510414
  0
LINE
  5
281
100
AcDbEntity
  8
0
100
AcDbLine
 62
7
  6
CONTINUOUS
 10
418.0063060035
 20
-42.7885489586
 11
422.2063060035
 21
-42.7885489586
  0
LINE
  5
282
100
AcDbEntity
  8
0
100
AcDbLine
 62
7
  6
CONTINUOUS
 10
418.0063060035
 20
-40.5885489586
 11
422.2063060035
 21
-40.5885489586
  0
LINE
  5
283
100
AcDbEntity
  8
0
100
AcDbLine
 62
7
  6
CONTINUOUS
 10
418.0063060035
 20
-32.7885489586
 11
422.2063060035
 21
-32.7885489586
  0
LINE
  5
284
100
AcDbEntity
  8
0
100
AcDbLine
 62
7
  6
CONTINUOUS
 10
418.0063060035
 20
-30.5885489586
 11
422.2063060035
 21
-30.5885489586
  0
LINE
  5
285
100
AcDbEntity
  8
0
100
AcDbLine
 62
7
  6
CONTINUOUS
 10
418.0063060035
 20
-22.7885489586
 11
422.2063060035
 21
-22.7885489586
  0
LINE
  5
286
100
AcDbEntity
  8
0
100
AcDbLine
 62
7
  6
CONTINUOUS
 10
418.0063060035
 20
-20.5885489586
 11
422.2063060035
 21
-20.5885489586
  0
LINE
  5
287
100
AcDbEntity
  8
0
100
AcDbLine
 62
7
  6
CONTINUOUS
 10
418.0063060035
 20
-12.7885489586
 11
422.2063060035
 21
-12.7885489586
  0
LINE
  5
288
100
AcDbEntity
  8
0
100
AcDbLine
 62
7
  6
CONTINUOUS
 10
418.0063060035
 20
-10.5885489586
 11
422.2063060035
 21
-10.5885489586
  0
LINE
  5
289
100
AcDbEntity
  8
0
100
AcDbLine
 62
7
  6
CONTINUOUS
 10
418.0063060035
 20
-2.7885489586
 11
422.2063060035
 21
-2.7885489586
  0
LINE
  5
28A
100
AcDbEntity
  8
0
100
AcDbLine
 62
7
  6
CONTINUOUS
 10
418.0063060035
 20
-0.5885489586
 11
422.2063060035
 21
-0.5885489586
  0
LINE
  5
28B
100
AcDbEntity
  8
0
100
AcDbLine
 62
7
  6
CONTINUOUS
 10
418.0063060035
 20
7.2114510414
 11
422.2063060035
 21
7.2114510414
  0
LINE
  5
28C
100
AcDbEntity
  8
0
100
AcDbLine
 62
7
  6
CONTINUOUS
 10
418.0063060035
 20
9.4114510414
 11
422.2063060035
 21
9.4114510414
  0
LINE
  5
28D
100
AcDbEntity
  8
0
100
AcDbLine
 62
7
  6
CONTINUOUS
 10
418.0063060035
 20
17.2114510414
 11
422.2063060035
 21
17.2114510414
  0
LINE
  5
28E
100
AcDbEntity
  8
0
100
AcDbLine
 62
7
  6
CONTINUOUS
 10
418.0063060035
 20
19.4114510414
 11
422.2063060035
 21
19.4114510414
  0
LINE
  5
28F
100
AcDbEntity
  8
0
100
AcDbLine
 62
7
  6
CONTINUOUS
 10
418.0063060035
 20
27.2114510414
 11
422.2063060035
 21
27.2114510414
  0
LINE
  5
290
100
AcDbEntity
  8
0
100
AcDbLine
 62
7
  6
CONTINUOUS
 10
418.0063060035
 20
29.4114510414
 11
422.2063060035
 21
29.4114510414
  0
LINE
  5
291
100
AcDbEntity
  8
0
100
AcDbLine
 62
7
  6
CONTINUOUS
 10
418.0063060035
 20
37.2114510414
 11
422.2063060035
 21
37.2114510414
  0
LINE
  5
292
100
AcDbEntity
  8
0
100
AcDbLine
 62
7
  6
CONTINUOUS
 10
418.0063060035
 20
39.4114510414
 11
422.2063060035
 21
39.4114510414
  0
LINE
  5
293
100
AcDbEntity
  8
0
100
AcDbLine
 62
7
  6
CONTINUOUS
 10
418.0063060035
 20
47.2114510414
 11
422.2063060035
 21
47.2114510414
  0
LINE
  5
294
100
AcDbEntity
  8
0
100
AcDbLine
 62
7
  6
CONTINUOUS
 10
418.0063060035
 20
49.4114510414
 11
422.2063060035
 21
49.4114510414
  0
LINE
  5
295
100
AcDbEntity
  8
0
100
AcDbLine
 62
7
  6
CONTINUOUS
 10
418.0063060035
 20
57.2114510414
 11
422.2063060035
 21
57.2114510414
  0
LINE
  5
296
100
AcDbEntity
  8
0
100
AcDbLine
 62
7
  6
CONTINUOUS
 10
418.0063060035
 20
59.4114510414
 11
422.2063060035
 21
59.4114510414
  0
LINE
  5
297
100
AcDbEntity
  8
0
100
AcDbLine
 62
7
  6
CONTINUOUS
 10
418.0063060035
 20
67.2114510414
 11
422.2063060035
 21
67.2114510414
  0
LINE
  5
298
100
AcDbEntity
  8
0
100
AcDbLine
 62
7
  6
CONTINUOUS
 10
418.0063060035
 20
69.4114510414
 11
422.2063060035
 21
69.4114510414
  0
LINE
  5
299
100
AcDbEntity
  8
0
100
AcDbLine
 62
7
  6
CONTINUOUS
 10
427.0063060035
 20
82.3114510414
 11
372.0063060035
 21
82.3114510414
  0
LINE
  5
29A
100
AcDbEntity
  8
0
100
AcDbLine
 62
7
  6
CONTINUOUS
 10
235.1990648866
 20
-89.8099126554
 11
180.1990648866
 21
-89.8099126554
  0
LINE
  5
29B
100
AcDbEntity
  8
0
100
AcDbLine
 62
7
  6
CONTINUOUS
 10
226.1990648866
 20
-76.9099126554
 11
230.3990648866
 21
-76.9099126554
  0
LINE
  5
29C
100
AcDbEntity
  8
0
100
AcDbLine
 62
7
  6
CONTINUOUS
 10
226.1990648866
 20
-74.7099126554
 11
230.3990648866
 21
-74.7099126554
  0
LINE
  5
29D
100
AcDbEntity
  8
0
100
AcDbLine
 62
7
  6
CONTINUOUS
 10
226.1990648866
 20
-66.9099126554
 11
230.3990648866
 21
-66.9099126554
  0
LINE
  5
29E
100
AcDbEntity
  8
0
100
AcDbLine
 62
7
  6
CONTINUOUS
 10
226.1990648866
 20
-64.7099126554
 11
230.3990648866
 21
-64.7099126554
  0
LINE
  5
29F
100
AcDbEntity
  8
0
100
AcDbLine
 62
7
  6
CONTINUOUS
 10
226.1990648866
 20
-56.9099126554
 11
230.3990648866
 21
-56.9099126554
  0
LINE
  5
2A0
100
AcDbEntity
  8
0
100
AcDbLine
 62
7
  6
CONTINUOUS
 10
206.6990648866
 20
-55.6799126554
 11
208.6990648866
 21
-55.6799126554
  0
LINE
  5
2A1
100
AcDbEntity
  8
0
100
AcDbLine
 62
7
  6
CONTINUOUS
 10
226.1990648866
 20
-54.7099126554
 11
230.3990648866
 21
-54.7099126554
  0
LINE
  5
2A2
100
AcDbEntity
  8
0
100
AcDbLine
 62
7
  6
CONTINUOUS
 10
226.1990648866
 20
-46.9099126554
 11
230.3990648866
 21
-46.9099126554
  0
LINE
  5
2A3
100
AcDbEntity
  8
0
100
AcDbLine
 62
7
  6
CONTINUOUS
 10
226.1990648866
 20
-44.7099126554
 11
230.3990648866
 21
-44.7099126554
  0
LINE
  5
2A4
100
AcDbEntity
  8
0
100
AcDbLine
 62
7
  6
CONTINUOUS
 10
208.6990648866
 20
-43.6799126554
 11
206.6990648866
 21
-43.6799126554
  0
LINE
  5
2A5
100
AcDbEntity
  8
0
100
AcDbLine
 62
7
  6
CONTINUOUS
 10
226.1990648866
 20
-36.9099126554
 11
230.3990648866
 21
-36.9099126554
  0
LINE
  5
2A6
100
AcDbEntity
  8
0
100
AcDbLine
 62
7
  6
CONTINUOUS
 10
226.1990648866
 20
-34.7099126554
 11
230.3990648866
 21
-34.7099126554
  0
LINE
  5
2A7
100
AcDbEntity
  8
0
100
AcDbLine
 62
7
  6
CONTINUOUS
 10
180.1990648866
 20
-89.8099126554
 11
180.1990648866
 21
78.1900873446
  0
LINE
  5
2A8
100
AcDbEntity
  8
0
100
AcDbLine
 62
7
  6
CONTINUOUS
 10
190.347390693
 20
-9.4025131651
 11
190.347390693
 21
16.624788922
  0
LINE
  5
2A9
100
AcDbEntity
  8
0
100
AcDbLine
 62
7
  6
CONTINUOUS
 10
226.1990648866
 20
-26.9099126554
 11
230.3990648866
 21
-26.9099126554
  0
LINE
  5
2AA
100
AcDbEntity
  8
0
100
AcDbLine
 62
7
  6
CONTINUOUS
 10
226.1990648866
 20
-24.7099126554
 11
230.3990648866
 21
-24.7099126554
  0
LINE
  5
2AB
100
AcDbEntity
  8
0
100
AcDbLine
 62
7
  6
CONTINUOUS
 10
226.1990648866
 20
-16.9099126554
 11
230.3990648866
 21
-16.9099126554
  0
LINE
  5
2AC
100
AcDbEntity
  8
0
100
AcDbLine
 62
7
  6
CONTINUOUS
 10
226.1990648866
 20
-14.7099126554
 11
230.3990648866
 21
-14.7099126554
  0
LINE
  5
2AD
100
AcDbEntity
  8
0
100
AcDbLine
 62
7
  6
CONTINUOUS
 10
203.4490648866
 20
31.1900873446
 11
203.4490648866
 21
45.1900873446
  0
LINE
  5
2AE
100
AcDbEntity
  8
0
100
AcDbLine
 62
7
  6
CONTINUOUS
 10
203.6990648866
 20
-46.6799126554
 11
203.6990648866
 21
-52.6799126554
  0
LINE
  5
2AF
100
AcDbEntity
  8
0
100
AcDbLine
 62
7
  6
CONTINUOUS
 10
204.9666189297
 20
16.624788922
 11
204.9666189297
 21
-9.4025131651
  0
LINE
  5
2B0
100
AcDbEntity
  8
0
100
AcDbLine
 62
7
  6
CONTINUOUS
 10
204.9666189297
 20
-9.4025131651
 11
190.347390693
 21
-9.4025131651
  0
LINE
  5
2B1
100
AcDbEntity
  8
0
100
AcDbLine
 62
7
  6
CONTINUOUS
 10
226.1990648866
 20
-6.9099126554
 11
230.3990648866
 21
-6.9099126554
  0
LINE
  5
2B2
100
AcDbEntity
  8
0
100
AcDbLine
 62
7
  6
CONTINUOUS
 10
210.4490648866
 20
45.1900873446
 11
210.4490648866
 21
31.1900873446
  0
LINE
  5
2B3
100
AcDbEntity
  8
0
100
AcDbLine
 62
7
  6
CONTINUOUS
 10
211.6990648866
 20
-52.6799126554
 11
211.6990648866
 21
-46.6799126554
  0
LINE
  5
2B4
100
AcDbEntity
  8
0
100
AcDbLine
 62
7
  6
CONTINUOUS
 10
226.1990648866
 20
-4.7099126554
 11
230.3990648866
 21
-4.7099126554
  0
LINE
  5
2B5
100
AcDbEntity
  8
0
100
AcDbLine
 62
7
  6
CONTINUOUS
 10
226.1990648866
 20
3.0900873446
 11
230.3990648866
 21
3.0900873446
  0
LINE
  5
2B6
100
AcDbEntity
  8
0
100
AcDbLine
 62
7
  6
CONTINUOUS
 10
226.1990648866
 20
5.2900873446
 11
230.3990648866
 21
5.2900873446
  0
LINE
  5
2B7
100
AcDbEntity
  8
0
100
AcDbLine
 62
7
  6
CONTINUOUS
 10
226.1990648866
 20
-76.9099126554
 11
226.1990648866
 21
-74.7099126554
  0
LINE
  5
2B8
100
AcDbEntity
  8
0
100
AcDbLine
 62
7
  6
CONTINUOUS
 10
226.1990648866
 20
-66.9099126554
 11
226.1990648866
 21
-64.7099126554
  0
LINE
  5
2B9
100
AcDbEntity
  8
0
100
AcDbLine
 62
7
  6
CONTINUOUS
 10
226.1990648866
 20
-56.9099126554
 11
226.1990648866
 21
-54.7099126554
  0
LINE
  5
2BA
100
AcDbEntity
  8
0
100
AcDbLine
 62
7
  6
CONTINUOUS
 10
226.1990648866
 20
-46.9099126554
 11
226.1990648866
 21
-44.7099126554
  0
LINE
  5
2BB
100
AcDbEntity
  8
0
100
AcDbLine
 62
7
  6
CONTINUOUS
 10
226.1990648866
 20
-36.9099126554
 11
226.1990648866
 21
-34.7099126554
  0
LINE
  5
2BC
100
AcDbEntity
  8
0
100
AcDbLine
 62
7
  6
CONTINUOUS
 10
226.1990648866
 20
-26.9099126554
 11
226.1990648866
 21
-24.7099126554
  0
LINE
  5
2BD
100
AcDbEntity
  8
0
100
AcDbLine
 62
7
  6
CONTINUOUS
 10
226.1990648866
 20
-16.9099126554
 11
226.1990648866
 21
-14.7099126554
  0
LINE
  5
2BE
100
AcDbEntity
  8
0
100
AcDbLine
 62
7
  6
CONTINUOUS
 10
226.1990648866
 20
-6.9099126554
 11
226.1990648866
 21
-4.7099126554
  0
LINE
  5
2BF
100
AcDbEntity
  8
0
100
AcDbLine
 62
7
  6
CONTINUOUS
 10
226.1990648866
 20
3.0900873446
 11
226.1990648866
 21
5.2900873446
  0
LINE
  5
2C0
100
AcDbEntity
  8
0
100
AcDbLine
 62
7
  6
CONTINUOUS
 10
226.1990648866
 20
13.0900873446
 11
226.1990648866
 21
15.2900873446
  0
LINE
  5
2C1
100
AcDbEntity
  8
0
100
AcDbLine
 62
7
  6
CONTINUOUS
 10
226.1990648866
 20
23.0900873446
 11
226.1990648866
 21
25.2900873446
  0
LINE
  5
2C2
100
AcDbEntity
  8
0
100
AcDbLine
 62
7
  6
CONTINUOUS
 10
226.1990648866
 20
33.0900873446
 11
226.1990648866
 21
35.2900873446
  0
LINE
  5
2C3
100
AcDbEntity
  8
0
100
AcDbLine
 62
7
  6
CONTINUOUS
 10
226.1990648866
 20
43.0900873446
 11
226.1990648866
 21
45.2900873446
  0
LINE
  5
2C4
100
AcDbEntity
  8
0
100
AcDbLine
 62
7
  6
CONTINUOUS
 10
226.1990648866
 20
53.0900873446
 11
226.1990648866
 21
55.2900873446
  0
LINE
  5
2C5
100
AcDbEntity
  8
0
100
AcDbLine
 62
7
  6
CONTINUOUS
 10
226.1990648866
 20
63.0900873446
 11
226.1990648866
 21
65.2900873446
  0
LINE
  5
2C6
100
AcDbEntity
  8
0
100
AcDbLine
 62
7
  6
CONTINUOUS
 10
230.3990648866
 20
-76.9099126554
 11
230.3990648866
 21
-74.7099126554
  0
LINE
  5
2C7
100
AcDbEntity
  8
0
100
AcDbLine
 62
7
  6
CONTINUOUS
 10
230.3990648866
 20
-66.9099126554
 11
230.3990648866
 21
-64.7099126554
  0
LINE
  5
2C8
100
AcDbEntity
  8
0
100
AcDbLine
 62
7
  6
CONTINUOUS
 10
230.3990648866
 20
-56.9099126554
 11
230.3990648866
 21
-54.7099126554
  0
LINE
  5
2C9
100
AcDbEntity
  8
0
100
AcDbLine
 62
7
  6
CONTINUOUS
 10
230.3990648866
 20
-46.9099126554
 11
230.3990648866
 21
-44.7099126554
  0
LINE
  5
2CA
100
AcDbEntity
  8
0
100
AcDbLine
 62
7
  6
CONTINUOUS
 10
230.3990648866
 20
-36.9099126554
 11
230.3990648866
 21
-34.7099126554
  0
LINE
  5
2CB
100
AcDbEntity
  8
0
100
AcDbLine
 62
7
  6
CONTINUOUS
 10
230.3990648866
 20
-26.9099126554
 11
230.3990648866
 21
-24.7099126554
  0
LINE
  5
2CC
100
AcDbEntity
  8
0
100
AcDbLine
 62
7
  6
CONTINUOUS
 10
230.3990648866
 20
-16.9099126554
 11
230.3990648866
 21
-14.7099126554
  0
LINE
  5
2CD
100
AcDbEntity
  8
0
100
AcDbLine
 62
7
  6
CONTINUOUS
 10
230.3990648866
 20
-6.9099126554
 11
230.3990648866
 21
-4.7099126554
  0
LINE
  5
2CE
100
AcDbEntity
  8
0
100
AcDbLine
 62
7
  6
CONTINUOUS
 10
230.3990648866
 20
3.0900873446
 11
230.3990648866
 21
5.2900873446
  0
LINE
  5
2CF
100
AcDbEntity
  8
0
100
AcDbLine
 62
7
  6
CONTINUOUS
 10
230.3990648866
 20
13.0900873446
 11
230.3990648866
 21
15.2900873446
  0
LINE
  5
2D0
100
AcDbEntity
  8
0
100
AcDbLine
 62
7
  6
CONTINUOUS
 10
230.3990648866
 20
23.0900873446
 11
230.3990648866
 21
25.2900873446
  0
LINE
  5
2D1
100
AcDbEntity
  8
0
100
AcDbLine
 62
7
  6
CONTINUOUS
 10
230.3990648866
 20
33.0900873446
 11
230.3990648866
 21
35.2900873446
  0
LINE
  5
2D2
100
AcDbEntity
  8
0
100
AcDbLine
 62
7
  6
CONTINUOUS
 10
230.3990648866
 20
43.0900873446
 11
230.3990648866
 21
45.2900873446
  0
LINE
  5
2D3
100
AcDbEntity
  8
0
100
AcDbLine
 62
7
  6
CONTINUOUS
 10
230.3990648866
 20
53.0900873446
 11
230.3990648866
 21
55.2900873446
  0
LINE
  5
2D4
100
AcDbEntity
  8
0
100
AcDbLine
 62
7
  6
CONTINUOUS
 10
230.3990648866
 20
63.0900873446
 11
230.3990648866
 21
65.2900873446
  0
LINE
  5
2D5
100
AcDbEntity
  8
0
100
AcDbLine
 62
7
  6
CONTINUOUS
 10
226.1990648866
 20
13.0900873446
 11
230.3990648866
 21
13.0900873446
  0
LINE
  5
2D6
100
AcDbEntity
  8
0
100
AcDbLine
 62
7
  6
CONTINUOUS
 10
226.1990648866
 20
15.2900873446
 11
230.3990648866
 21
15.2900873446
  0
LINE
  5
2D7
100
AcDbEntity
  8
0
100
AcDbLine
 62
7
  6
CONTINUOUS
 10
190.347390693
 20
16.624788922
 11
204.9666189297
 21
16.624788922
  0
LINE
  5
2D8
100
AcDbEntity
  8
0
100
AcDbLine
 62
7
  6
CONTINUOUS
 10
235.1990648866
 20
78.1900873446
 11
235.1990648866
 21
-89.8099126554
  0
LINE
  5
2D9
100
AcDbEntity
  8
0
100
AcDbLine
 62
7
  6
CONTINUOUS
 10
226.1990648866
 20
23.0900873446
 11
230.3990648866
 21
23.0900873446
  0
LINE
  5
2DA
100
AcDbEntity
  8
0
100
AcDbLine
 62
7
  6
CONTINUOUS
 10
226.1990648866
 20
25.2900873446
 11
230.3990648866
 21
25.2900873446
  0
LINE
  5
2DB
100
AcDbEntity
  8
0
100
AcDbLine
 62
7
  6
CONTINUOUS
 10
226.1990648866
 20
33.0900873446
 11
230.3990648866
 21
33.0900873446
  0
LINE
  5
2DC
100
AcDbEntity
  8
0
100
AcDbLine
 62
7
  6
CONTINUOUS
 10
226.1990648866
 20
35.2900873446
 11
230.3990648866
 21
35.2900873446
  0
LINE
  5
2DD
100
AcDbEntity
  8
0
100
AcDbLine
 62
7
  6
CONTINUOUS
 10
226.1990648866
 20
43.0900873446
 11
230.3990648866
 21
43.0900873446
  0
LINE
  5
2DE
100
AcDbEntity
  8
0
100
AcDbLine
 62
7
  6
CONTINUOUS
 10
226.1990648866
 20
45.2900873446
 11
230.3990648866
 21
45.2900873446
  0
LINE
  5
2DF
100
AcDbEntity
  8
0
100
AcDbLine
 62
7
  6
CONTINUOUS
 10
226.1990648866
 20
53.0900873446
 11
230.3990648866
 21
53.0900873446
  0
LINE
  5
2E0
100
AcDbEntity
  8
0
100
AcDbLine
 62
7
  6
CONTINUOUS
 10
226.1990648866
 20
55.2900873446
 11
230.3990648866
 21
55.2900873446
  0
LINE
  5
2E1
100
AcDbEntity
  8
0
100
AcDbLine
 62
7
  6
CONTINUOUS
 10
226.1990648866
 20
63.0900873446
 11
230.3990648866
 21
63.0900873446
  0
LINE
  5
2E2
100
AcDbEntity
  8
0
100
AcDbLine
 62
7
  6
CONTINUOUS
 10
226.1990648866
 20
65.2900873446
 11
230.3990648866
 21
65.2900873446
  0
LINE
  5
2E3
100
AcDbEntity
  8
0
100
AcDbLine
 62
7
  6
CONTINUOUS
 10
180.1990648866
 20
78.1900873446
 11
235.1990648866
 21
78.1900873446
  0
LINE
  5
2E4
100
AcDbEntity
  8
0
100
AcDbLine
 62
7
  6
CONTINUOUS
 10
151.9274113433
 20
-267.6224126554
 11
151.9274113433
 21
70.3775873446
  0
LINE
  5
2E5
100
AcDbEntity
  8
0
100
AcDbLine
 62
7
  6
CONTINUOUS
 10
169.9274113433
 20
62.3775873446
 11
169.9274113433
 21
-259.6224126554
  0
LINE
  5
2E6
100
AcDbEntity
  8
0
100
AcDbLine
 62
7
  6
CONTINUOUS
 10
154.8563435315
 20
-274.6934804673
 11
169.9274113433
 21
-259.6224126554
  0
LINE
  5
2E7
100
AcDbEntity
  8
0
100
AcDbLine
 62
7
  6
CONTINUOUS
 10
169.9274113433
 20
62.3775873446
 11
154.8563435315
 21
77.4486551565
  0
LINE
  5
2E8
100
AcDbEntity
  8
0
100
AcDbLine
 62
7
  6
CONTINUOUS
 10
127.0799703984
 20
-262.5067630491
 11
127.0799703984
 21
75.4932369509
  0
LINE
  5
2E9
100
AcDbEntity
  8
0
100
AcDbLine
 62
7
  6
CONTINUOUS
 10
145.0799703984
 20
67.4932369509
 11
145.0799703984
 21
-254.5067630491
  0
LINE
  5
2EA
100
AcDbEntity
  8
0
100
AcDbLine
 62
7
  6
CONTINUOUS
 10
130.0089025866
 20
-269.577830861
 11
145.0799703984
 21
-254.5067630491
  0
LINE
  5
2EB
100
AcDbEntity
  8
0
100
AcDbLine
 62
7
  6
CONTINUOUS
 10
145.0799703984
 20
67.4932369509
 11
130.0089025866
 21
82.5643047628
  0
LINE
  5
2EC
100
AcDbEntity
  8
0
100
AcDbLine
 62
7
  6
CONTINUOUS
 10
102.2325294536
 20
-107.9644402145
 11
102.2325294536
 21
70.0355597855
  0
LINE
  5
2ED
100
AcDbEntity
  8
0
100
AcDbLine
 62
7
  6
CONTINUOUS
 10
120.2325294536
 20
62.0355597855
 11
120.2325294536
 21
-99.9644402145
  0
LINE
  5
2EE
100
AcDbEntity
  8
0
100
AcDbLine
 62
7
  6
CONTINUOUS
 10
105.1614616417
 20
-115.0355080263
 11
120.2325294536
 21
-99.9644402145
  0
LINE
  5
2EF
100
AcDbEntity
  8
0
100
AcDbLine
 62
7
  6
CONTINUOUS
 10
120.2325294536
 20
62.0355597855
 11
105.1614616417
 21
77.1066275974
  0
LINE
  5
2F0
100
AcDbEntity
  8
0
100
AcDbLine
 62
7
  6
CONTINUOUS
 10
76.2592587595
 20
68.0068250572
 11
91.3303265713
 21
83.077892869
  0
LINE
  5
2F1
100
AcDbEntity
  8
0
100
AcDbLine
 62
7
  6
CONTINUOUS
 10
91.3303265713
 20
-109.0642427547
 11
76.2592587595
 21
-93.9931749428
  0
LINE
  5
2F2
100
AcDbEntity
  8
0
100
AcDbLine
 62
7
  6
CONTINUOUS
 10
76.2592587595
 20
68.0068250572
 11
76.2592587595
 21
-93.9931749428
  0
LINE
  5
2F3
100
AcDbEntity
  8
0
100
AcDbLine
 62
7
  6
CONTINUOUS
 10
94.2592587595
 20
-101.9931749428
 11
94.2592587595
 21
76.0068250572
  0
LINE
  5
2F4
100
AcDbEntity
  8
0
100
AcDbLine
 62
7
  6
CONTINUOUS
 10
242.3176672488
 20
-105.254203994
 11
242.3176672488
 21
-131.454203994
  0
LINE
  5
2F5
100
AcDbEntity
  8
0
100
AcDbLine
 62
7
  6
CONTINUOUS
 10
247.3176672488
 20
-136.454203994
 11
292.3176672488
 21
-136.454203994
  0
LINE
  5
2F6
100
AcDbEntity
  8
0
100
AcDbLine
 62
7
  6
CONTINUOUS
 10
292.3176672488
 20
-100.254203994
 11
247.3176672488
 21
-100.254203994
  0
LINE
  5
2F7
100
AcDbEntity
  8
0
100
AcDbLine
 62
7
  6
CONTINUOUS
 10
297.3176672488
 20
-131.454203994
 11
297.3176672488
 21
-105.254203994
  0
LINE
  5
2F8
100
AcDbEntity
  8
0
100
AcDbLine
 62
7
  6
CONTINUOUS
 10
244.5100885087
 20
-87.6174913956
 11
299.5100885087
 21
-87.6174913956
  0
LINE
  5
2F9
100
AcDbEntity
  8
0
100
AcDbLine
 62
7
  6
CONTINUOUS
 10
290.5100885087
 20
-74.7174913956
 11
294.7100885087
 21
-74.7174913956
  0
LINE
  5
2FA
100
AcDbEntity
  8
0
100
AcDbLine
 62
7
  6
CONTINUOUS
 10
290.5100885087
 20
-72.5174913956
 11
294.7100885087
 21
-72.5174913956
  0
LINE
  5
2FB
100
AcDbEntity
  8
0
100
AcDbLine
 62
7
  6
CONTINUOUS
 10
290.5100885087
 20
-64.7174913956
 11
294.7100885087
 21
-64.7174913956
  0
LINE
  5
2FC
100
AcDbEntity
  8
0
100
AcDbLine
 62
7
  6
CONTINUOUS
 10
290.5100885087
 20
-62.5174913956
 11
294.7100885087
 21
-62.5174913956
  0
LINE
  5
2FD
100
AcDbEntity
  8
0
100
AcDbLine
 62
7
  6
CONTINUOUS
 10
290.5100885087
 20
-54.7174913956
 11
294.7100885087
 21
-54.7174913956
  0
LINE
  5
2FE
100
AcDbEntity
  8
0
100
AcDbLine
 62
7
  6
CONTINUOUS
 10
290.5100885087
 20
-52.5174913956
 11
294.7100885087
 21
-52.5174913956
  0
LINE
  5
2FF
100
AcDbEntity
  8
0
100
AcDbLine
 62
7
  6
CONTINUOUS
 10
290.5100885087
 20
-44.7174913956
 11
294.7100885087
 21
-44.7174913956
  0
LINE
  5
300
100
AcDbEntity
  8
0
100
AcDbLine
 62
7
  6
CONTINUOUS
 10
290.5100885087
 20
-42.5174913956
 11
294.7100885087
 21
-42.5174913956
  0
LINE
  5
301
100
AcDbEntity
  8
0
100
AcDbLine
 62
7
  6
CONTINUOUS
 10
290.5100885087
 20
-34.7174913956
 11
294.7100885087
 21
-34.7174913956
  0
LINE
  5
302
100
AcDbEntity
  8
0
100
AcDbLine
 62
7
  6
CONTINUOUS
 10
290.5100885087
 20
-32.5174913956
 11
294.7100885087
 21
-32.5174913956
  0
LINE
  5
303
100
AcDbEntity
  8
0
100
AcDbLine
 62
7
  6
CONTINUOUS
 10
244.5100885087
 20
80.3825086044
 11
244.5100885087
 21
-87.6174913956
  0
LINE
  5
304
100
AcDbEntity
  8
0
100
AcDbLine
 62
7
  6
CONTINUOUS
 10
290.5100885087
 20
-24.7174913956
 11
294.7100885087
 21
-24.7174913956
  0
LINE
  5
305
100
AcDbEntity
  8
0
100
AcDbLine
 62
7
  6
CONTINUOUS
 10
290.5100885087
 20
-22.5174913956
 11
294.7100885087
 21
-22.5174913956
  0
LINE
  5
306
100
AcDbEntity
  8
0
100
AcDbLine
 62
7
  6
CONTINUOUS
 10
290.5100885087
 20
-14.7174913956
 11
294.7100885087
 21
-14.7174913956
  0
LINE
  5
307
100
AcDbEntity
  8
0
100
AcDbLine
 62
7
  6
CONTINUOUS
 10
290.5100885087
 20
-12.5174913956
 11
294.7100885087
 21
-12.5174913956
  0
LINE
  5
308
100
AcDbEntity
  8
0
100
AcDbLine
 62
7
  6
CONTINUOUS
 10
267.7600885087
 20
47.3825086044
 11
267.7600885087
 21
33.3825086044
  0
LINE
  5
309
100
AcDbEntity
  8
0
100
AcDbLine
 62
7
  6
CONTINUOUS
 10
290.5100885087
 20
-4.7174913956
 11
294.7100885087
 21
-4.7174913956
  0
LINE
  5
30A
100
AcDbEntity
  8
0
100
AcDbLine
 62
7
  6
CONTINUOUS
 10
274.7600885087
 20
33.3825086044
 11
274.7600885087
 21
47.3825086044
  0
LINE
  5
30B
100
AcDbEntity
  8
0
100
AcDbLine
 62
7
  6
CONTINUOUS
 10
290.5100885087
 20
-2.5174913956
 11
294.7100885087
 21
-2.5174913956
  0
LINE
  5
30C
100
AcDbEntity
  8
0
100
AcDbLine
 62
7
  6
CONTINUOUS
 10
290.5100885087
 20
5.2825086044
 11
294.7100885087
 21
5.2825086044
  0
LINE
  5
30D
100
AcDbEntity
  8
0
100
AcDbLine
 62
7
  6
CONTINUOUS
 10
290.5100885087
 20
7.4825086044
 11
294.7100885087
 21
7.4825086044
  0
LINE
  5
30E
100
AcDbEntity
  8
0
100
AcDbLine
 62
7
  6
CONTINUOUS
 10
290.5100885087
 20
-74.7174913956
 11
290.5100885087
 21
-72.5174913956
  0
LINE
  5
30F
100
AcDbEntity
  8
0
100
AcDbLine
 62
7
  6
CONTINUOUS
 10
290.5100885087
 20
-64.7174913956
 11
290.5100885087
 21
-62.5174913956
  0
LINE
  5
310
100
AcDbEntity
  8
0
100
AcDbLine
 62
7
  6
CONTINUOUS
 10
290.5100885087
 20
-54.7174913956
 11
290.5100885087
 21
-52.5174913956
  0
LINE
  5
311
100
AcDbEntity
  8
0
100
AcDbLine
 62
7
  6
CONTINUOUS
 10
290.5100885087
 20
-44.7174913956
 11
290.5100885087
 21
-42.5174913956
  0
LINE
  5
312
100
AcDbEntity
  8
0
100
AcDbLine
 62
7
  6
CONTINUOUS
 10
290.5100885087
 20
-34.7174913956
 11
290.5100885087
 21
-32.5174913956
  0
LINE
  5
313
100
AcDbEntity
  8
0
100
AcDbLine
 62
7
  6
CONTINUOUS
 10
290.5100885087
 20
-24.7174913956
 11
290.5100885087
 21
-22.5174913956
  0
LINE
  5
314
100
AcDbEntity
  8
0
100
AcDbLine
 62
7
  6
CONTINUOUS
 10
290.5100885087
 20
-14.7174913956
 11
290.5100885087
 21
-12.5174913956
  0
LINE
  5
315
100
AcDbEntity
  8
0
100
AcDbLine
 62
7
  6
CONTINUOUS
 10
290.5100885087
 20
-4.7174913956
 11
290.5100885087
 21
-2.5174913956
  0
LINE
  5
316
100
AcDbEntity
  8
0
100
AcDbLine
 62
7
  6
CONTINUOUS
 10
290.5100885087
 20
5.2825086044
 11
290.5100885087
 21
7.4825086044
  0
LINE
  5
317
100
AcDbEntity
  8
0
100
AcDbLine
 62
7
  6
CONTINUOUS
 10
290.5100885087
 20
15.2825086044
 11
290.5100885087
 21
17.4825086044
  0
LINE
  5
318
100
AcDbEntity
  8
0
100
AcDbLine
 62
7
  6
CONTINUOUS
 10
290.5100885087
 20
25.2825086044
 11
290.5100885087
 21
27.4825086044
  0
LINE
  5
319
100
AcDbEntity
  8
0
100
AcDbLine
 62
7
  6
CONTINUOUS
 10
290.5100885087
 20
35.2825086044
 11
290.5100885087
 21
37.4825086044
  0
LINE
  5
31A
100
AcDbEntity
  8
0
100
AcDbLine
 62
7
  6
CONTINUOUS
 10
290.5100885087
 20
45.2825086044
 11
290.5100885087
 21
47.4825086044
  0
LINE
  5
31B
100
AcDbEntity
  8
0
100
AcDbLine
 62
7
  6
CONTINUOUS
 10
290.5100885087
 20
55.2825086044
 11
290.5100885087
 21
57.4825086044
  0
LINE
  5
31C
100
AcDbEntity
  8
0
100
AcDbLine
 62
7
  6
CONTINUOUS
 10
290.5100885087
 20
65.2825086044
 11
290.5100885087
 21
67.4825086044
  0
LINE
  5
31D
100
AcDbEntity
  8
0
100
AcDbLine
 62
7
  6
CONTINUOUS
 10
294.7100885087
 20
-74.7174913956
 11
294.7100885087
 21
-72.5174913956
  0
LINE
  5
31E
100
AcDbEntity
  8
0
100
AcDbLine
 62
7
  6
CONTINUOUS
 10
294.7100885087
 20
-64.7174913956
 11
294.7100885087
 21
-62.5174913956
  0
LINE
  5
31F
100
AcDbEntity
  8
0
100
AcDbLine
 62
7
  6
CONTINUOUS
 10
294.7100885087
 20
-54.7174913956
 11
294.7100885087
 21
-52.5174913956
  0
LINE
  5
320
100
AcDbEntity
  8
0
100
AcDbLine
 62
7
  6
CONTINUOUS
 10
294.7100885087
 20
-44.7174913956
 11
294.7100885087
 21
-42.5174913956
  0
LINE
  5
321
100
AcDbEntity
  8
0
100
AcDbLine
 62
7
  6
CONTINUOUS
 10
294.7100885087
 20
-34.7174913956
 11
294.7100885087
 21
-32.5174913956
  0
LINE
  5
322
100
AcDbEntity
  8
0
100
AcDbLine
 62
7
  6
CONTINUOUS
 10
294.7100885087
 20
-24.7174913956
 11
294.7100885087
 21
-22.5174913956
  0
LINE
  5
323
100
AcDbEntity
  8
0
100
AcDbLine
 62
7
  6
CONTINUOUS
 10
294.7100885087
 20
-14.7174913956
 11
294.7100885087
 21
-12.5174913956
  0
LINE
  5
324
100
AcDbEntity
  8
0
100
AcDbLine
 62
7
  6
CONTINUOUS
 10
294.7100885087
 20
-4.7174913956
 11
294.7100885087
 21
-2.5174913956
  0
LINE
  5
325
100
AcDbEntity
  8
0
100
AcDbLine
 62
7
  6
CONTINUOUS
 10
294.7100885087
 20
5.2825086044
 11
294.7100885087
 21
7.4825086044
  0
LINE
  5
326
100
AcDbEntity
  8
0
100
AcDbLine
 62
7
  6
CONTINUOUS
 10
294.7100885087
 20
15.2825086044
 11
294.7100885087
 21
17.4825086044
  0
LINE
  5
327
100
AcDbEntity
  8
0
100
AcDbLine
 62
7
  6
CONTINUOUS
 10
294.7100885087
 20
25.2825086044
 11
294.7100885087
 21
27.4825086044
  0
LINE
  5
328
100
AcDbEntity
  8
0
100
AcDbLine
 62
7
  6
CONTINUOUS
 10
294.7100885087
 20
35.2825086044
 11
294.7100885087
 21
37.4825086044
  0
LINE
  5
329
100
AcDbEntity
  8
0
100
AcDbLine
 62
7
  6
CONTINUOUS
 10
294.7100885087
 20
45.2825086044
 11
294.7100885087
 21
47.4825086044
  0
LINE
  5
32A
100
AcDbEntity
  8
0
100
AcDbLine
 62
7
  6
CONTINUOUS
 10
294.7100885087
 20
55.2825086044
 11
294.7100885087
 21
57.4825086044
  0
LINE
  5
32B
100
AcDbEntity
  8
0
100
AcDbLine
 62
7
  6
CONTINUOUS
 10
294.7100885087
 20
65.2825086044
 11
294.7100885087
 21
67.4825086044
  0
LINE
  5
32C
100
AcDbEntity
  8
0
100
AcDbLine
 62
7
  6
CONTINUOUS
 10
290.5100885087
 20
15.2825086044
 11
294.7100885087
 21
15.2825086044
  0
LINE
  5
32D
100
AcDbEntity
  8
0
100
AcDbLine
 62
7
  6
CONTINUOUS
 10
290.5100885087
 20
17.4825086044
 11
294.7100885087
 21
17.4825086044
  0
LINE
  5
32E
100
AcDbEntity
  8
0
100
AcDbLine
 62
7
  6
CONTINUOUS
 10
299.5100885087
 20
-87.6174913956
 11
299.5100885087
 21
80.3825086044
  0
LINE
  5
32F
100
AcDbEntity
  8
0
100
AcDbLine
 62
7
  6
CONTINUOUS
 10
290.5100885087
 20
25.2825086044
 11
294.7100885087
 21
25.2825086044
  0
LINE
  5
330
100
AcDbEntity
  8
0
100
AcDbLine
 62
7
  6
CONTINUOUS
 10
290.5100885087
 20
27.4825086044
 11
294.7100885087
 21
27.4825086044
  0
LINE
  5
331
100
AcDbEntity
  8
0
100
AcDbLine
 62
7
  6
CONTINUOUS
 10
290.5100885087
 20
35.2825086044
 11
294.7100885087
 21
35.2825086044
  0
LINE
  5
332
100
AcDbEntity
  8
0
100
AcDbLine
 62
7
  6
CONTINUOUS
 10
290.5100885087
 20
37.4825086044
 11
294.7100885087
 21
37.4825086044
  0
LINE
  5
333
100
AcDbEntity
  8
0
100
AcDbLine
 62
7
  6
CONTINUOUS
 10
290.5100885087
 20
45.2825086044
 11
294.7100885087
 21
45.2825086044
  0
LINE
  5
334
100
AcDbEntity
  8
0
100
AcDbLine
 62
7
  6
CONTINUOUS
 10
290.5100885087
 20
47.4825086044
 11
294.7100885087
 21
47.4825086044
  0
LINE
  5
335
100
AcDbEntity
  8
0
100
AcDbLine
 62
7
  6
CONTINUOUS
 10
290.5100885087
 20
55.2825086044
 11
294.7100885087
 21
55.2825086044
  0
LINE
  5
336
100
AcDbEntity
  8
0
100
AcDbLine
 62
7
  6
CONTINUOUS
 10
290.5100885087
 20
57.4825086044
 11
294.7100885087
 21
57.4825086044
  0
LINE
  5
337
100
AcDbEntity
  8
0
100
AcDbLine
 62
7
  6
CONTINUOUS
 10
290.5100885087
 20
65.2825086044
 11
294.7100885087
 21
65.2825086044
  0
LINE
  5
338
100
AcDbEntity
  8
0
100
AcDbLine
 62
7
  6
CONTINUOUS
 10
290.5100885087
 20
67.4825086044
 11
294.7100885087
 21
67.4825086044
  0
LINE
  5
339
100
AcDbEntity
  8
0
100
AcDbLine
 62
7
  6
CONTINUOUS
 10
299.5100885087
 20
80.3825086044
 11
244.5100885087
 21
80.3825086044
  0
LINE
  5
33A
100
AcDbEntity
  8
0
100
AcDbLine
 62
7
  6
CONTINUOUS
 10
306.6286908709
 20
-245.8133575373
 11
361.6286908709
 21
-245.8133575373
  0
LINE
  5
33B
100
AcDbEntity
  8
0
100
AcDbLine
 62
7
  6
CONTINUOUS
 10
352.6286908709
 20
-232.9133575373
 11
356.8286908709
 21
-232.9133575373
  0
LINE
  5
33C
100
AcDbEntity
  8
0
100
AcDbLine
 62
7
  6
CONTINUOUS
 10
352.6286908709
 20
-230.7133575373
 11
356.8286908709
 21
-230.7133575373
  0
LINE
  5
33D
100
AcDbEntity
  8
0
100
AcDbLine
 62
7
  6
CONTINUOUS
 10
352.6286908709
 20
-222.9133575373
 11
356.8286908709
 21
-222.9133575373
  0
LINE
  5
33E
100
AcDbEntity
  8
0
100
AcDbLine
 62
7
  6
CONTINUOUS
 10
352.6286908709
 20
-220.7133575373
 11
356.8286908709
 21
-220.7133575373
  0
LINE
  5
33F
100
AcDbEntity
  8
0
100
AcDbLine
 62
7
  6
CONTINUOUS
 10
352.6286908709
 20
-212.9133575373
 11
356.8286908709
 21
-212.9133575373
  0
LINE
  5
340
100
AcDbEntity
  8
0
100
AcDbLine
 62
7
  6
CONTINUOUS
 10
352.6286908709
 20
-210.7133575373
 11
356.8286908709
 21
-210.7133575373
  0
LINE
  5
341
100
AcDbEntity
  8
0
100
AcDbLine
 62
7
  6
CONTINUOUS
 10
352.6286908709
 20
-202.9133575373
 11
356.8286908709
 21
-202.9133575373
  0
LINE
  5
342
100
AcDbEntity
  8
0
100
AcDbLine
 62
7
  6
CONTINUOUS
 10
352.6286908709
 20
-200.7133575373
 11
356.8286908709
 21
-200.7133575373
  0
LINE
  5
343
100
AcDbEntity
  8
0
100
AcDbLine
 62
7
  6
CONTINUOUS
 10
352.6286908709
 20
-192.9133575373
 11
356.8286908709
 21
-192.9133575373
  0
LINE
  5
344
100
AcDbEntity
  8
0
100
AcDbLine
 62
7
  6
CONTINUOUS
 10
352.6286908709
 20
-190.7133575373
 11
356.8286908709
 21
-190.7133575373
  0
LINE
  5
345
100
AcDbEntity
  8
0
100
AcDbLine
 62
7
  6
CONTINUOUS
 10
352.6286908709
 20
-182.9133575373
 11
356.8286908709
 21
-182.9133575373
  0
LINE
  5
346
100
AcDbEntity
  8
0
100
AcDbLine
 62
7
  6
CONTINUOUS
 10
352.6286908709
 20
-180.7133575373
 11
356.8286908709
 21
-180.7133575373
  0
LINE
  5
347
100
AcDbEntity
  8
0
100
AcDbLine
 62
7
  6
CONTINUOUS
 10
352.6286908709
 20
-172.9133575373
 11
356.8286908709
 21
-172.9133575373
  0
LINE
  5
348
100
AcDbEntity
  8
0
100
AcDbLine
 62
7
  6
CONTINUOUS
 10
352.6286908709
 20
-170.7133575373
 11
356.8286908709
 21
-170.7133575373
  0
LINE
  5
349
100
AcDbEntity
  8
0
100
AcDbLine
 62
7
  6
CONTINUOUS
 10
352.6286908709
 20
-162.9133575373
 11
356.8286908709
 21
-162.9133575373
  0
LINE
  5
34A
100
AcDbEntity
  8
0
100
AcDbLine
 62
7
  6
CONTINUOUS
 10
352.6286908709
 20
-160.7133575373
 11
356.8286908709
 21
-160.7133575373
  0
LINE
  5
34B
100
AcDbEntity
  8
0
100
AcDbLine
 62
7
  6
CONTINUOUS
 10
352.6286908709
 20
-152.9133575373
 11
356.8286908709
 21
-152.9133575373
  0
LINE
  5
34C
100
AcDbEntity
  8
0
100
AcDbLine
 62
7
  6
CONTINUOUS
 10
352.6286908709
 20
-150.7133575373
 11
356.8286908709
 21
-150.7133575373
  0
LINE
  5
34D
100
AcDbEntity
  8
0
100
AcDbLine
 62
7
  6
CONTINUOUS
 10
352.6286908709
 20
-142.9133575373
 11
356.8286908709
 21
-142.9133575373
  0
LINE
  5
34E
100
AcDbEntity
  8
0
100
AcDbLine
 62
7
  6
CONTINUOUS
 10
352.6286908709
 20
-140.7133575373
 11
356.8286908709
 21
-140.7133575373
  0
LINE
  5
34F
100
AcDbEntity
  8
0
100
AcDbLine
 62
7
  6
CONTINUOUS
 10
352.6286908709
 20
-132.9133575373
 11
356.8286908709
 21
-132.9133575373
  0
LINE
  5
350
100
AcDbEntity
  8
0
100
AcDbLine
 62
7
  6
CONTINUOUS
 10
352.6286908709
 20
-130.7133575373
 11
356.8286908709
 21
-130.7133575373
  0
LINE
  5
351
100
AcDbEntity
  8
0
100
AcDbLine
 62
7
  6
CONTINUOUS
 10
352.6286908709
 20
-122.9133575373
 11
356.8286908709
 21
-122.9133575373
  0
LINE
  5
352
100
AcDbEntity
  8
0
100
AcDbLine
 62
7
  6
CONTINUOUS
 10
352.6286908709
 20
-120.7133575373
 11
356.8286908709
 21
-120.7133575373
  0
LINE
  5
353
100
AcDbEntity
  8
0
100
AcDbLine
 62
7
  6
CONTINUOUS
 10
352.6286908709
 20
-112.9133575373
 11
356.8286908709
 21
-112.9133575373
  0
LINE
  5
354
100
AcDbEntity
  8
0
100
AcDbLine
 62
7
  6
CONTINUOUS
 10
352.6286908709
 20
-110.7133575373
 11
356.8286908709
 21
-110.7133575373
  0
LINE
  5
355
100
AcDbEntity
  8
0
100
AcDbLine
 62
7
  6
CONTINUOUS
 10
306.6286908709
 20
82.1866424627
 11
306.6286908709
 21
-245.8133575373
  0
LINE
  5
356
100
AcDbEntity
  8
0
100
AcDbLine
 62
7
  6
CONTINUOUS
 10
352.6286908709
 20
-102.9133575373
 11
356.8286908709
 21
-102.9133575373
  0
LINE
  5
357
100
AcDbEntity
  8
0
100
AcDbLine
 62
7
  6
CONTINUOUS
 10
352.6286908709
 20
-100.7133575373
 11
356.8286908709
 21
-100.7133575373
  0
LINE
  5
358
100
AcDbEntity
  8
0
100
AcDbLine
 62
7
  6
CONTINUOUS
 10
352.6286908709
 20
-92.9133575373
 11
356.8286908709
 21
-92.9133575373
  0
LINE
  5
359
100
AcDbEntity
  8
0
100
AcDbLine
 62
7
  6
CONTINUOUS
 10
352.6286908709
 20
-90.7133575373
 11
356.8286908709
 21
-90.7133575373
  0
LINE
  5
35A
100
AcDbEntity
  8
0
100
AcDbLine
 62
7
  6
CONTINUOUS
 10
352.6286908709
 20
-82.9133575373
 11
356.8286908709
 21
-82.9133575373
  0
LINE
  5
35B
100
AcDbEntity
  8
0
100
AcDbLine
 62
7
  6
CONTINUOUS
 10
352.6286908709
 20
-80.7133575373
 11
356.8286908709
 21
-80.7133575373
  0
LINE
  5
35C
100
AcDbEntity
  8
0
100
AcDbLine
 62
7
  6
CONTINUOUS
 10
352.6286908709
 20
-72.9133575373
 11
356.8286908709
 21
-72.9133575373
  0
LINE
  5
35D
100
AcDbEntity
  8
0
100
AcDbLine
 62
7
  6
CONTINUOUS
 10
352.6286908709
 20
-70.7133575373
 11
356.8286908709
 21
-70.7133575373
  0
LINE
  5
35E
100
AcDbEntity
  8
0
100
AcDbLine
 62
7
  6
CONTINUOUS
 10
352.6286908709
 20
-62.9133575373
 11
356.8286908709
 21
-62.9133575373
  0
LINE
  5
35F
100
AcDbEntity
  8
0
100
AcDbLine
 62
7
  6
CONTINUOUS
 10
352.6286908709
 20
-60.7133575373
 11
356.8286908709
 21
-60.7133575373
  0
LINE
  5
360
100
AcDbEntity
  8
0
100
AcDbLine
 62
7
  6
CONTINUOUS
 10
352.6286908709
 20
-232.9133575373
 11
352.6286908709
 21
-230.7133575373
  0
LINE
  5
361
100
AcDbEntity
  8
0
100
AcDbLine
 62
7
  6
CONTINUOUS
 10
352.6286908709
 20
-222.9133575373
 11
352.6286908709
 21
-220.7133575373
  0
LINE
  5
362
100
AcDbEntity
  8
0
100
AcDbLine
 62
7
  6
CONTINUOUS
 10
352.6286908709
 20
-212.9133575373
 11
352.6286908709
 21
-210.7133575373
  0
LINE
  5
363
100
AcDbEntity
  8
0
100
AcDbLine
 62
7
  6
CONTINUOUS
 10
352.6286908709
 20
-202.9133575373
 11
352.6286908709
 21
-200.7133575373
  0
LINE
  5
364
100
AcDbEntity
  8
0
100
AcDbLine
 62
7
  6
CONTINUOUS
 10
352.6286908709
 20
-192.9133575373
 11
352.6286908709
 21
-190.7133575373
  0
LINE
  5
365
100
AcDbEntity
  8
0
100
AcDbLine
 62
7
  6
CONTINUOUS
 10
352.6286908709
 20
-182.9133575373
 11
352.6286908709
 21
-180.7133575373
  0
LINE
  5
366
100
AcDbEntity
  8
0
100
AcDbLine
 62
7
  6
CONTINUOUS
 10
352.6286908709
 20
-172.9133575373
 11
352.6286908709
 21
-170.7133575373
  0
LINE
  5
367
100
AcDbEntity
  8
0
100
AcDbLine
 62
7
  6
CONTINUOUS
 10
352.6286908709
 20
-162.9133575373
 11
352.6286908709
 21
-160.7133575373
  0
LINE
  5
368
100
AcDbEntity
  8
0
100
AcDbLine
 62
7
  6
CONTINUOUS
 10
352.6286908709
 20
-152.9133575373
 11
352.6286908709
 21
-150.7133575373
  0
LINE
  5
369
100
AcDbEntity
  8
0
100
AcDbLine
 62
7
  6
CONTINUOUS
 10
352.6286908709
 20
-142.9133575373
 11
352.6286908709
 21
-140.7133575373
  0
LINE
  5
36A
100
AcDbEntity
  8
0
100
AcDbLine
 62
7
  6
CONTINUOUS
 10
352.6286908709
 20
-132.9133575373
 11
352.6286908709
 21
-130.7133575373
  0
LINE
  5
36B
100
AcDbEntity
  8
0
100
AcDbLine
 62
7
  6
CONTINUOUS
 10
352.6286908709
 20
-122.9133575373
 11
352.6286908709
 21
-120.7133575373
  0
LINE
  5
36C
100
AcDbEntity
  8
0
100
AcDbLine
 62
7
  6
CONTINUOUS
 10
352.6286908709
 20
-112.9133575373
 11
352.6286908709
 21
-110.7133575373
  0
LINE
  5
36D
100
AcDbEntity
  8
0
100
AcDbLine
 62
7
  6
CONTINUOUS
 10
352.6286908709
 20
-102.9133575373
 11
352.6286908709
 21
-100.7133575373
  0
LINE
  5
36E
100
AcDbEntity
  8
0
100
AcDbLine
 62
7
  6
CONTINUOUS
 10
352.6286908709
 20
-92.9133575373
 11
352.6286908709
 21
-90.7133575373
  0
LINE
  5
36F
100
AcDbEntity
  8
0
100
AcDbLine
 62
7
  6
CONTINUOUS
 10
352.6286908709
 20
-82.9133575373
 11
352.6286908709
 21
-80.7133575373
  0
LINE
  5
370
100
AcDbEntity
  8
0
100
AcDbLine
 62
7
  6
CONTINUOUS
 10
352.6286908709
 20
-72.9133575373
 11
352.6286908709
 21
-70.7133575373
  0
LINE
  5
371
100
AcDbEntity
  8
0
100
AcDbLine
 62
7
  6
CONTINUOUS
 10
352.6286908709
 20
-62.9133575373
 11
352.6286908709
 21
-60.7133575373
  0
LINE
  5
372
100
AcDbEntity
  8
0
100
AcDbLine
 62
7
  6
CONTINUOUS
 10
352.6286908709
 20
-52.9133575373
 11
352.6286908709
 21
-50.7133575373
  0
LINE
  5
373
100
AcDbEntity
  8
0
100
AcDbLine
 62
7
  6
CONTINUOUS
 10
352.6286908709
 20
-42.9133575373
 11
352.6286908709
 21
-40.7133575373
  0
LINE
  5
374
100
AcDbEntity
  8
0
100
AcDbLine
 62
7
  6
CONTINUOUS
 10
352.6286908709
 20
-32.9133575373
 11
352.6286908709
 21
-30.7133575373
  0
LINE
  5
375
100
AcDbEntity
  8
0
100
AcDbLine
 62
7
  6
CONTINUOUS
 10
352.6286908709
 20
-22.9133575373
 11
352.6286908709
 21
-20.7133575373
  0
LINE
  5
376
100
AcDbEntity
  8
0
100
AcDbLine
 62
7
  6
CONTINUOUS
 10
352.6286908709
 20
-12.9133575373
 11
352.6286908709
 21
-10.7133575373
  0
LINE
  5
377
100
AcDbEntity
  8
0
100
AcDbLine
 62
7
  6
CONTINUOUS
 10
352.6286908709
 20
-2.9133575373
 11
352.6286908709
 21
-0.7133575373
  0
LINE
  5
378
100
AcDbEntity
  8
0
100
AcDbLine
 62
7
  6
CONTINUOUS
 10
352.6286908709
 20
7.0866424627
 11
352.6286908709
 21
9.2866424627
  0
LINE
  5
379
100
AcDbEntity
  8
0
100
AcDbLine
 62
7
  6
CONTINUOUS
 10
352.6286908709
 20
17.0866424627
 11
352.6286908709
 21
19.2866424627
  0
LINE
  5
37A
100
AcDbEntity
  8
0
100
AcDbLine
 62
7
  6
CONTINUOUS
 10
352.6286908709
 20
27.0866424627
 11
352.6286908709
 21
29.2866424627
  0
LINE
  5
37B
100
AcDbEntity
  8
0
100
AcDbLine
 62
7
  6
CONTINUOUS
 10
352.6286908709
 20
37.0866424627
 11
352.6286908709
 21
39.2866424627
  0
LINE
  5
37C
100
AcDbEntity
  8
0
100
AcDbLine
 62
7
  6
CONTINUOUS
 10
352.6286908709
 20
47.0866424627
 11
352.6286908709
 21
49.2866424627
  0
LINE
  5
37D
100
AcDbEntity
  8
0
100
AcDbLine
 62
7
  6
CONTINUOUS
 10
352.6286908709
 20
57.0866424627
 11
352.6286908709
 21
59.2866424627
  0
LINE
  5
37E
100
AcDbEntity
  8
0
100
AcDbLine
 62
7
  6
CONTINUOUS
 10
352.6286908709
 20
67.0866424627
 11
352.6286908709
 21
69.2866424627
  0
LINE
  5
37F
100
AcDbEntity
  8
0
100
AcDbLine
 62
7
  6
CONTINUOUS
 10
356.8286908709
 20
-232.9133575373
 11
356.8286908709
 21
-230.7133575373
  0
LINE
  5
380
100
AcDbEntity
  8
0
100
AcDbLine
 62
7
  6
CONTINUOUS
 10
356.8286908709
 20
-222.9133575373
 11
356.8286908709
 21
-220.7133575373
  0
LINE
  5
381
100
AcDbEntity
  8
0
100
AcDbLine
 62
7
  6
CONTINUOUS
 10
356.8286908709
 20
-212.9133575373
 11
356.8286908709
 21
-210.7133575373
  0
LINE
  5
382
100
AcDbEntity
  8
0
100
AcDbLine
 62
7
  6
CONTINUOUS
 10
356.8286908709
 20
-202.9133575373
 11
356.8286908709
 21
-200.7133575373
  0
LINE
  5
383
100
AcDbEntity
  8
0
100
AcDbLine
 62
7
  6
CONTINUOUS
 10
356.8286908709
 20
-192.9133575373
 11
356.8286908709
 21
-190.7133575373
  0
LINE
  5
384
100
AcDbEntity
  8
0
100
AcDbLine
 62
7
  6
CONTINUOUS
 10
356.8286908709
 20
-182.9133575373
 11
356.8286908709
 21
-180.7133575373
  0
LINE
  5
385
100
AcDbEntity
  8
0
100
AcDbLine
 62
7
  6
CONTINUOUS
 10
356.8286908709
 20
-172.9133575373
 11
356.8286908709
 21
-170.7133575373
  0
LINE
  5
386
100
AcDbEntity
  8
0
100
AcDbLine
 62
7
  6
CONTINUOUS
 10
356.8286908709
 20
-162.9133575373
 11
356.8286908709
 21
-160.7133575373
  0
LINE
  5
387
100
AcDbEntity
  8
0
100
AcDbLine
 62
7
  6
CONTINUOUS
 10
356.8286908709
 20
-152.9133575373
 11
356.8286908709
 21
-150.7133575373
  0
LINE
  5
388
100
AcDbEntity
  8
0
100
AcDbLine
 62
7
  6
CONTINUOUS
 10
356.8286908709
 20
-142.9133575373
 11
356.8286908709
 21
-140.7133575373
  0
LINE
  5
389
100
AcDbEntity
  8
0
100
AcDbLine
 62
7
  6
CONTINUOUS
 10
356.8286908709
 20
-132.9133575373
 11
356.8286908709
 21
-130.7133575373
  0
LINE
  5
38A
100
AcDbEntity
  8
0
100
AcDbLine
 62
7
  6
CONTINUOUS
 10
356.8286908709
 20
-122.9133575373
 11
356.8286908709
 21
-120.7133575373
  0
LINE
  5
38B
100
AcDbEntity
  8
0
100
AcDbLine
 62
7
  6
CONTINUOUS
 10
356.8286908709
 20
-112.9133575373
 11
356.8286908709
 21
-110.7133575373
  0
LINE
  5
38C
100
AcDbEntity
  8
0
100
AcDbLine
 62
7
  6
CONTINUOUS
 10
356.8286908709
 20
-102.9133575373
 11
356.8286908709
 21
-100.7133575373
  0
LINE
  5
38D
100
AcDbEntity
  8
0
100
AcDbLine
 62
7
  6
CONTINUOUS
 10
356.8286908709
 20
-92.9133575373
 11
356.8286908709
 21
-90.7133575373
  0
LINE
  5
38E
100
AcDbEntity
  8
0
100
AcDbLine
 62
7
  6
CONTINUOUS
 10
356.8286908709
 20
-82.9133575373
 11
356.8286908709
 21
-80.7133575373
  0
LINE
  5
38F
100
AcDbEntity
  8
0
100
AcDbLine
 62
7
  6
CONTINUOUS
 10
356.8286908709
 20
-72.9133575373
 11
356.8286908709
 21
-70.7133575373
  0
LINE
  5
390
100
AcDbEntity
  8
0
100
AcDbLine
 62
7
  6
CONTINUOUS
 10
356.8286908709
 20
-62.9133575373
 11
356.8286908709
 21
-60.7133575373
  0
LINE
  5
391
100
AcDbEntity
  8
0
100
AcDbLine
 62
7
  6
CONTINUOUS
 10
356.8286908709
 20
-52.9133575373
 11
356.8286908709
 21
-50.7133575373
  0
LINE
  5
392
100
AcDbEntity
  8
0
100
AcDbLine
 62
7
  6
CONTINUOUS
 10
356.8286908709
 20
-42.9133575373
 11
356.8286908709
 21
-40.7133575373
  0
LINE
  5
393
100
AcDbEntity
  8
0
100
AcDbLine
 62
7
  6
CONTINUOUS
 10
356.8286908709
 20
-32.9133575373
 11
356.8286908709
 21
-30.7133575373
  0
LINE
  5
394
100
AcDbEntity
  8
0
100
AcDbLine
 62
7
  6
CONTINUOUS
 10
356.8286908709
 20
-22.9133575373
 11
356.8286908709
 21
-20.7133575373
  0
LINE
  5
395
100
AcDbEntity
  8
0
100
AcDbLine
 62
7
  6
CONTINUOUS
 10
356.8286908709
 20
-12.9133575373
 11
356.8286908709
 21
-10.7133575373
  0
LINE
  5
396
100
AcDbEntity
  8
0
100
AcDbLine
 62
7
  6
CONTINUOUS
 10
356.8286908709
 20
-2.9133575373
 11
356.8286908709
 21
-0.7133575373
  0
LINE
  5
397
100
AcDbEntity
  8
0
100
AcDbLine
 62
7
  6
CONTINUOUS
 10
356.8286908709
 20
7.0866424627
 11
356.8286908709
 21
9.2866424627
  0
LINE
  5
398
100
AcDbEntity
  8
0
100
AcDbLine
 62
7
  6
CONTINUOUS
 10
356.8286908709
 20
17.0866424627
 11
356.8286908709
 21
19.2866424627
  0
LINE
  5
399
100
AcDbEntity
  8
0
100
AcDbLine
 62
7
  6
CONTINUOUS
 10
356.8286908709
 20
27.0866424627
 11
356.8286908709
 21
29.2866424627
  0
LINE
  5
39A
100
AcDbEntity
  8
0
100
AcDbLine
 62
7
  6
CONTINUOUS
 10
356.8286908709
 20
37.0866424627
 11
356.8286908709
 21
39.2866424627
  0
LINE
  5
39B
100
AcDbEntity
  8
0
100
AcDbLine
 62
7
  6
CONTINUOUS
 10
356.8286908709
 20
47.0866424627
 11
356.8286908709
 21
49.2866424627
  0
LINE
  5
39C
100
AcDbEntity
  8
0
100
AcDbLine
 62
7
  6
CONTINUOUS
 10
356.8286908709
 20
57.0866424627
 11
356.8286908709
 21
59.2866424627
  0
LINE
  5
39D
100
AcDbEntity
  8
0
100
AcDbLine
 62
7
  6
CONTINUOUS
 10
356.8286908709
 20
67.0866424627
 11
356.8286908709
 21
69.2866424627
  0
LINE
  5
39E
100
AcDbEntity
  8
0
100
AcDbLine
 62
7
  6
CONTINUOUS
 10
352.6286908709
 20
-52.9133575373
 11
356.8286908709
 21
-52.9133575373
  0
LINE
  5
39F
100
AcDbEntity
  8
0
100
AcDbLine
 62
7
  6
CONTINUOUS
 10
352.6286908709
 20
-50.7133575373
 11
356.8286908709
 21
-50.7133575373
  0
LINE
  5
3A0
100
AcDbEntity
  8
0
100
AcDbLine
 62
7
  6
CONTINUOUS
 10
361.6286908709
 20
-245.8133575373
 11
361.6286908709
 21
82.1866424627
  0
LINE
  5
3A1
100
AcDbEntity
  8
0
100
AcDbLine
 62
7
  6
CONTINUOUS
 10
352.6286908709
 20
-42.9133575373
 11
356.8286908709
 21
-42.9133575373
  0
LINE
  5
3A2
100
AcDbEntity
  8
0
100
AcDbLine
 62
7
  6
CONTINUOUS
 10
352.6286908709
 20
-40.7133575373
 11
356.8286908709
 21
-40.7133575373
  0
LINE
  5
3A3
100
AcDbEntity
  8
0
100
AcDbLine
 62
7
  6
CONTINUOUS
 10
352.6286908709
 20
-32.9133575373
 11
356.8286908709
 21
-32.9133575373
  0
LINE
  5
3A4
100
AcDbEntity
  8
0
100
AcDbLine
 62
7
  6
CONTINUOUS
 10
352.6286908709
 20
-30.7133575373
 11
356.8286908709
 21
-30.7133575373
  0
LINE
  5
3A5
100
AcDbEntity
  8
0
100
AcDbLine
 62
7
  6
CONTINUOUS
 10
352.6286908709
 20
-22.9133575373
 11
356.8286908709
 21
-22.9133575373
  0
LINE
  5
3A6
100
AcDbEntity
  8
0
100
AcDbLine
 62
7
  6
CONTINUOUS
 10
352.6286908709
 20
-20.7133575373
 11
356.8286908709
 21
-20.7133575373
  0
LINE
  5
3A7
100
AcDbEntity
  8
0
100
AcDbLine
 62
7
  6
CONTINUOUS
 10
352.6286908709
 20
-12.9133575373
 11
356.8286908709
 21
-12.9133575373
  0
LINE
  5
3A8
100
AcDbEntity
  8
0
100
AcDbLine
 62
7
  6
CONTINUOUS
 10
352.6286908709
 20
-10.7133575373
 11
356.8286908709
 21
-10.7133575373
  0
LINE
  5
3A9
100
AcDbEntity
  8
0
100
AcDbLine
 62
7
  6
CONTINUOUS
 10
352.6286908709
 20
-2.9133575373
 11
356.8286908709
 21
-2.9133575373
  0
LINE
  5
3AA
100
AcDbEntity
  8
0
100
AcDbLine
 62
7
  6
CONTINUOUS
 10
352.6286908709
 20
-0.7133575373
 11
356.8286908709
 21
-0.7133575373
  0
LINE
  5
3AB
100
AcDbEntity
  8
0
100
AcDbLine
 62
7
  6
CONTINUOUS
 10
352.6286908709
 20
7.0866424627
 11
356.8286908709
 21
7.0866424627
  0
LINE
  5
3AC
100
AcDbEntity
  8
0
100
AcDbLine
 62
7
  6
CONTINUOUS
 10
352.6286908709
 20
9.2866424627
 11
356.8286908709
 21
9.2866424627
  0
LINE
  5
3AD
100
AcDbEntity
  8
0
100
AcDbLine
 62
7
  6
CONTINUOUS
 10
352.6286908709
 20
17.0866424627
 11
356.8286908709
 21
17.0866424627
  0
LINE
  5
3AE
100
AcDbEntity
  8
0
100
AcDbLine
 62
7
  6
CONTINUOUS
 10
352.6286908709
 20
19.2866424627
 11
356.8286908709
 21
19.2866424627
  0
LINE
  5
3AF
100
AcDbEntity
  8
0
100
AcDbLine
 62
7
  6
CONTINUOUS
 10
352.6286908709
 20
27.0866424627
 11
356.8286908709
 21
27.0866424627
  0
LINE
  5
3B0
100
AcDbEntity
  8
0
100
AcDbLine
 62
7
  6
CONTINUOUS
 10
352.6286908709
 20
29.2866424627
 11
356.8286908709
 21
29.2866424627
  0
LINE
  5
3B1
100
AcDbEntity
  8
0
100
AcDbLine
 62
7
  6
CONTINUOUS
 10
352.6286908709
 20
37.0866424627
 11
356.8286908709
 21
37.0866424627
  0
LINE
  5
3B2
100
AcDbEntity
  8
0
100
AcDbLine
 62
7
  6
CONTINUOUS
 10
352.6286908709
 20
39.2866424627
 11
356.8286908709
 21
39.2866424627
  0
LINE
  5
3B3
100
AcDbEntity
  8
0
100
AcDbLine
 62
7
  6
CONTINUOUS
 10
352.6286908709
 20
47.0866424627
 11
356.8286908709
 21
47.0866424627
  0
LINE
  5
3B4
100
AcDbEntity
  8
0
100
AcDbLine
 62
7
  6
CONTINUOUS
 10
352.6286908709
 20
49.2866424627
 11
356.8286908709
 21
49.2866424627
  0
LINE
  5
3B5
100
AcDbEntity
  8
0
100
AcDbLine
 62
7
  6
CONTINUOUS
 10
352.6286908709
 20
57.0866424627
 11
356.8286908709
 21
57.0866424627
  0
LINE
  5
3B6
100
AcDbEntity
  8
0
100
AcDbLine
 62
7
  6
CONTINUOUS
 10
352.6286908709
 20
59.2866424627
 11
356.8286908709
 21
59.2866424627
  0
LINE
  5
3B7
100
AcDbEntity
  8
0
100
AcDbLine
 62
7
  6
CONTINUOUS
 10
352.6286908709
 20
67.0866424627
 11
356.8286908709
 21
67.0866424627
  0
LINE
  5
3B8
100
AcDbEntity
  8
0
100
AcDbLine
 62
7
  6
CONTINUOUS
 10
352.6286908709
 20
69.2866424627
 11
356.8286908709
 21
69.2866424627
  0
LINE
  5
3B9
100
AcDbEntity
  8
0
100
AcDbLine
 62
7
  6
CONTINUOUS
 10
361.6286908709
 20
82.1866424627
 11
306.6286908709
 21
82.1866424627
  0
LINE
  5
3BA
100
AcDbEntity
  8
0
100
AcDbLine
 62
7
  6
CONTINUOUS
 10
221.1763189101
 20
-101.8636802306
 11
221.1763189101
 21
-106.8636802306
  0
LINE
  5
3BB
100
AcDbEntity
  8
0
100
AcDbLine
 62
7
  6
CONTINUOUS
 10
221.1763189101
 20
-106.8636802306
 11
234.1763189101
 21
-106.8636802306
  0
LINE
  5
3BC
100
AcDbEntity
  8
0
100
AcDbLine
 62
7
  6
CONTINUOUS
 10
234.1763189101
 20
-101.8636802306
 11
221.1763189101
 21
-101.8636802306
  0
LINE
  5
3BD
100
AcDbEntity
  8
0
100
AcDbLine
 62
7
  6
CONTINUOUS
 10
234.1763189101
 20
-106.8636802306
 11
234.1763189101
 21
-101.8636802306
  0
LINE
  5
3BE
100
AcDbEntity
  8
0
100
AcDbLine
 62
7
  6
CONTINUOUS
 10
220.7086023747
 20
-112.1534440102
 11
220.7086023747
 21
-117.1534440102
  0
LINE
  5
3BF
100
AcDbEntity
  8
0
100
AcDbLine
 62
7
  6
CONTINUOUS
 10
220.7086023747
 20
-117.1534440102
 11
233.7086023747
 21
-117.1534440102
  0
LINE
  5
3C0
100
AcDbEntity
  8
0
100
AcDbLine
 62
7
  6
CONTINUOUS
 10
233.7086023747
 20
-112.1534440102
 11
220.7086023747
 21
-112.1534440102
  0
LINE
  5
3C1
100
AcDbEntity
  8
0
100
AcDbLine
 62
7
  6
CONTINUOUS
 10
233.7086023747
 20
-117.1534440102
 11
233.7086023747
 21
-112.1534440102
  0
LINE
  5
3C2
100
AcDbEntity
  8
0
100
AcDbLine
 62
7
  6
CONTINUOUS
 10
220.7086023747
 20
-121.9754912543
 11
220.7086023747
 21
-126.9754912543
  0
LINE
  5
3C3
100
AcDbEntity
  8
0
100
AcDbLine
 62
7
  6
CONTINUOUS
 10
220.7086023747
 20
-126.9754912543
 11
233.7086023747
 21
-126.9754912543
  0
LINE
  5
3C4
100
AcDbEntity
  8
0
100
AcDbLine
 62
7
  6
CONTINUOUS
 10
233.7086023747
 20
-121.9754912543
 11
220.7086023747
 21
-121.9754912543
  0
LINE
  5
3C5
100
AcDbEntity
  8
0
100
AcDbLine
 62
7
  6
CONTINUOUS
 10
233.7086023747
 20
-126.9754912543
 11
233.7086023747
 21
-121.9754912543
  0
ARC
  5
3C6
100
AcDbEntity
  8
0
100
AcDbCircle
 62
7
  6
CONTINUOUS
 10
82.1827810465
 20
100.9755690475
 40
10.0
100
AcDbArc
 50
180.0
 51
270.0
  0
ARC
  5
3C7
100
AcDbEntity
  8
0
100
AcDbCircle
 62
7
  6
CONTINUOUS
 10
420.1827810465
 20
100.9755690475
 40
10.0
100
AcDbArc
 50
270.0
 51
360.0
  0
ARC
  5
3C8
100
AcDbEntity
  8
0
100
AcDbCircle
 62
7
  6
CONTINUOUS
 10
420.1827810465
 20
278.9755690475
 40
10.0
100
AcDbArc
 50
0.0
 51
90.0
  0
ARC
  5
3C9
100
AcDbEntity
  8
0
100
AcDbCircle
 62
7
  6
CONTINUOUS
 10
82.1827810465
 20
278.9755690475
 40
10.0
100
AcDbArc
 50
90.0
 51
180.0
  0
CIRCLE
  5
3CA
100
AcDbEntity
  8
0
100
AcDbCircle
 62
7
  6
CONTINUOUS
 10
422.1827810465
 20
98.9755690475
 40
1.7
  0
CIRCLE
  5
3CB
100
AcDbEntity
  8
0
100
AcDbCircle
 62
7
  6
CONTINUOUS
 10
422.1827810465
 20
280.9755690475
 40
1.7
  0
CIRCLE
  5
3CC
100
AcDbEntity
  8
0
100
AcDbCircle
 62
7
  6
CONTINUOUS
 10
80.1827810465
 20
280.9755690475
 40
1.7
  0
CIRCLE
  5
3CD
100
AcDbEntity
  8
0
100
AcDbCircle
 62
7
  6
CONTINUOUS
 10
80.1827810465
 20
98.9755690475
 40
1.7
  0
CIRCLE
  5
3CE
100
AcDbEntity
  8
0
100
AcDbCircle
 62
7
  6
CONTINUOUS
 10
399.5063060035
 20
76.3114510414
 40
1.7
  0
CIRCLE
  5
3CF
100
AcDbEntity
  8
0
100
AcDbCircle
 62
7
  6
CONTINUOUS
 10
399.5063060035
 20
-239.6885489586
 40
1.7
  0
ARC
  5
3D0
100
AcDbEntity
  8
0
100
AcDbCircle
 62
7
  6
CONTINUOUS
 10
206.9490648866
 20
45.1900873446
 40
3.5
100
AcDbArc
 50
0.0
 51
180.0
  0
ARC
  5
3D1
100
AcDbEntity
  8
0
100
AcDbCircle
 62
7
  6
CONTINUOUS
 10
206.9490648866
 20
31.1900873446
 40
3.5
100
AcDbArc
 50
180.0
 51
360.0
  0
ARC
  5
3D2
100
AcDbEntity
  8
0
100
AcDbCircle
 62
7
  6
CONTINUOUS
 10
208.6990648866
 20
-46.6799126554
 40
3.0
100
AcDbArc
 50
0.0
 51
90.0
  0
ARC
  5
3D3
100
AcDbEntity
  8
0
100
AcDbCircle
 62
7
  6
CONTINUOUS
 10
206.6990648866
 20
-46.6799126554
 40
3.0
100
AcDbArc
 50
90.0
 51
180.0
  0
ARC
  5
3D4
100
AcDbEntity
  8
0
100
AcDbCircle
 62
7
  6
CONTINUOUS
 10
206.6990648866
 20
-52.6799126554
 40
3.0
100
AcDbArc
 50
180.0
 51
270.0
  0
ARC
  5
3D5
100
AcDbEntity
  8
0
100
AcDbCircle
 62
7
  6
CONTINUOUS
 10
208.6990648866
 20
-52.6799126554
 40
3.0
100
AcDbArc
 50
270.0
 51
360.0
  0
CIRCLE
  5
3D6
100
AcDbEntity
  8
0
100
AcDbCircle
 62
7
  6
CONTINUOUS
 10
207.0490648866
 20
22.9400873446
 40
1.75
  0
CIRCLE
  5
3D7
100
AcDbEntity
  8
0
100
AcDbCircle
 62
7
  6
CONTINUOUS
 10
207.0490648866
 20
53.4400873446
 40
1.75
  0
CIRCLE
  5
3D8
100
AcDbEntity
  8
0
100
AcDbCircle
 62
7
  6
CONTINUOUS
 10
197.743598407
 20
-13.9599126554
 40
1.75
  0
CIRCLE
  5
3D9
100
AcDbEntity
  8
0
100
AcDbCircle
 62
7
  6
CONTINUOUS
 10
207.6990648866
 20
-83.8099126554
 40
1.7
  0
CIRCLE
  5
3DA
100
AcDbEntity
  8
0
100
AcDbCircle
 62
7
  6
CONTINUOUS
 10
207.6990648866
 20
72.1900873446
 40
1.7
  0
CIRCLE
  5
3DB
100
AcDbEntity
  8
_ACHSEN
100
AcDbCircle
 62
7
  6
CONTINUOUS
 10
207.6990648866
 20
-63.3099126554
 40
1.7
  0
CIRCLE
  5
3DC
100
AcDbEntity
  8
_ACHSEN
100
AcDbCircle
 62
7
  6
CONTINUOUS
 10
207.6990648866
 20
-35.8099126554
 40
1.7
  0
ARC
  5
3DD
100
AcDbEntity
  8
0
100
AcDbCircle
 62
7
  6
CONTINUOUS
 10
161.9274113433
 20
-267.6224126554
 40
10.0
100
AcDbArc
 50
180.0
 51
225.0
  0
ARC
  5
3DE
100
AcDbEntity
  8
0
100
AcDbCircle
 62
7
  6
CONTINUOUS
 10
161.9274113433
 20
70.3775873446
 40
10.0
100
AcDbArc
 50
135.0
 51
180.0
  0
CIRCLE
  5
3DF
100
AcDbEntity
  8
0
100
AcDbCircle
 62
7
  6
CONTINUOUS
 10
160.9274113433
 20
-254.6224126554
 40
1.7
  0
CIRCLE
  5
3E0
100
AcDbEntity
  8
0
100
AcDbCircle
 62
7
  6
CONTINUOUS
 10
160.9274113433
 20
57.3775873446
 40
1.7
  0
ARC
  5
3E1
100
AcDbEntity
  8
0
100
AcDbCircle
 62
7
  6
CONTINUOUS
 10
137.0799703984
 20
-262.5067630491
 40
10.0
100
AcDbArc
 50
180.0
 51
225.0
  0
ARC
  5
3E2
100
AcDbEntity
  8
0
100
AcDbCircle
 62
7
  6
CONTINUOUS
 10
137.0799703984
 20
75.4932369509
 40
10.0
100
AcDbArc
 50
135.0
 51
180.0
  0
CIRCLE
  5
3E3
100
AcDbEntity
  8
0
100
AcDbCircle
 62
7
  6
CONTINUOUS
 10
136.0799703984
 20
-249.5067630491
 40
1.7
  0
CIRCLE
  5
3E4
100
AcDbEntity
  8
0
100
AcDbCircle
 62
7
  6
CONTINUOUS
 10
136.0799703984
 20
62.4932369509
 40
1.7
  0
ARC
  5
3E5
100
AcDbEntity
  8
0
100
AcDbCircle
 62
7
  6
CONTINUOUS
 10
112.2325294536
 20
-107.9644402145
 40
10.0
100
AcDbArc
 50
180.0
 51
225.0
  0
ARC
  5
3E6
100
AcDbEntity
  8
0
100
AcDbCircle
 62
7
  6
CONTINUOUS
 10
112.2325294536
 20
70.0355597855
 40
10.0
100
AcDbArc
 50
135.0
 51
180.0
  0
CIRCLE
  5
3E7
100
AcDbEntity
  8
0
100
AcDbCircle
 62
7
  6
CONTINUOUS
 10
111.2325294536
 20
57.0355597855
 40
1.7
  0
CIRCLE
  5
3E8
100
AcDbEntity
  8
0
100
AcDbCircle
 62
7
  6
CONTINUOUS
 10
111.2325294536
 20
-94.9644402145
 40
1.7
  0
ARC
  5
3E9
100
AcDbEntity
  8
0
100
AcDbCircle
 62
7
  6
CONTINUOUS
 10
84.2592587595
 20
-101.9931749428
 40
10.0
100
AcDbArc
 50
315.0
 51
360.0
  0
ARC
  5
3EA
100
AcDbEntity
  8
0
100
AcDbCircle
 62
7
  6
CONTINUOUS
 10
84.2592587595
 20
76.0068250572
 40
10.0
100
AcDbArc
 50
0.0
 51
45.0
  0
CIRCLE
  5
3EB
100
AcDbEntity
  8
0
100
AcDbCircle
 62
7
  6
CONTINUOUS
 10
85.2592587595
 20
-88.9931749428
 40
1.7
  0
CIRCLE
  5
3EC
100
AcDbEntity
  8
0
100
AcDbCircle
 62
7
  6
CONTINUOUS
 10
85.2592587595
 20
63.0068250572
 40
1.7
  0
ARC
  5
3ED
100
AcDbEntity
  8
0
100
AcDbCircle
 62
7
  6
CONTINUOUS
 10
292.3176672488
 20
-131.454203994
 40
5.0
100
AcDbArc
 50
270.0
 51
360.0
  0
ARC
  5
3EE
100
AcDbEntity
  8
0
100
AcDbCircle
 62
7
  6
CONTINUOUS
 10
292.3176672488
 20
-105.254203994
 40
5.0
100
AcDbArc
 50
0.0
 51
90.0
  0
ARC
  5
3EF
100
AcDbEntity
  8
0
100
AcDbCircle
 62
7
  6
CONTINUOUS
 10
247.3176672488
 20
-105.254203994
 40
5.0
100
AcDbArc
 50
90.0
 51
180.0
  0
ARC
  5
3F0
100
AcDbEntity
  8
0
100
AcDbCircle
 62
7
  6
CONTINUOUS
 10
247.3176672488
 20
-131.454203994
 40
5.0
100
AcDbArc
 50
180.0
 51
270.0
  0
CIRCLE
  5
3F1
100
AcDbEntity
  8
_ACHSEN
100
AcDbCircle
 62
7
  6
CONTINUOUS
 10
292.3176672488
 20
-130.854203994
 40
1.7
  0
CIRCLE
  5
3F2
100
AcDbEntity
  8
_ACHSEN
100
AcDbCircle
 62
7
  6
CONTINUOUS
 10
247.3176672488
 20
-130.854203994
 40
1.7
  0
CIRCLE
  5
3F3
100
AcDbEntity
  8
_ACHSEN
100
AcDbCircle
 62
7
  6
CONTINUOUS
 10
247.3176672488
 20
-105.854203994
 40
1.7
  0
CIRCLE
  5
3F4
100
AcDbEntity
  8
_ACHSEN
100
AcDbCircle
 62
7
  6
CONTINUOUS
 10
292.3176672488
 20
-105.854203994
 40
1.7
  0
CIRCLE
  5
3F5
100
AcDbEntity
  8
_ACHSEN
100
AcDbCircle
 62
7
  6
CONTINUOUS
 10
282.9176672488
 20
-128.604203994
 40
1.7
  0
CIRCLE
  5
3F6
100
AcDbEntity
  8
_ACHSEN
100
AcDbCircle
 62
7
  6
CONTINUOUS
 10
256.7176672488
 20
-128.604203994
 40
1.7
  0
CIRCLE
  5
3F7
100
AcDbEntity
  8
_ACHSEN
100
AcDbCircle
 62
7
  6
CONTINUOUS
 10
256.7176672488
 20
-108.104203994
 40
1.7
  0
CIRCLE
  5
3F8
100
AcDbEntity
  8
_ACHSEN
100
AcDbCircle
 62
7
  6
CONTINUOUS
 10
282.9176672488
 20
-108.104203994
 40
1.7
  0
CIRCLE
  5
3F9
100
AcDbEntity
  8
0
100
AcDbCircle
 62
7
  6
CONTINUOUS
 10
265.6100885087
 20
-24.2174913956
 40
15.0
  0
CIRCLE
  5
3FA
100
AcDbEntity
  8
_ACHSEN
100
AcDbCircle
 62
7
  6
CONTINUOUS
 10
254.0100885087
 20
56.3825086044
 40
3.65
  0
ARC
  5
3FB
100
AcDbEntity
  8
0
100
AcDbCircle
 62
7
  6
CONTINUOUS
 10
271.2600885087
 20
33.3825086044
 40
3.5
100
AcDbArc
 50
180.0
 51
360.0
  0
ARC
  5
3FC
100
AcDbEntity
  8
0
100
AcDbCircle
 62
7
  6
CONTINUOUS
 10
271.2600885087
 20
47.3825086044
 40
3.5
100
AcDbArc
 50
0.0
 51
180.0
  0
CIRCLE
  5
3FD
100
AcDbEntity
  8
0
100
AcDbCircle
 62
7
  6
CONTINUOUS
 10
271.3600885087
 20
55.6325086044
 40
1.75
  0
CIRCLE
  5
3FE
100
AcDbEntity
  8
0
100
AcDbCircle
 62
7
  6
CONTINUOUS
 10
271.3600885087
 20
25.1325086044
 40
1.75
  0
CIRCLE
  5
3FF
100
AcDbEntity
  8
0
100
AcDbCircle
 62
7
  6
CONTINUOUS
 10
272.0100885087
 20
-81.6174913956
 40
1.7
  0
CIRCLE
  5
400
100
AcDbEntity
  8
0
100
AcDbCircle
 62
7
  6
CONTINUOUS
 10
277.1100885087
 20
-47.6174913956
 40
1.7
  0
CIRCLE
  5
401
100
AcDbEntity
  8
0
100
AcDbCircle
 62
7
  6
CONTINUOUS
 10
277.1100885087
 20
-2.6174913956
 40
1.7
  0
CIRCLE
  5
402
100
AcDbEntity
  8
0
100
AcDbCircle
 62
7
  6
CONTINUOUS
 10
252.1100885087
 20
-2.6174913956
 40
1.7
  0
CIRCLE
  5
403
100
AcDbEntity
  8
0
100
AcDbCircle
 62
7
  6
CONTINUOUS
 10
252.1100885087
 20
-47.6174913956
 40
1.7
  0
CIRCLE
  5
404
100
AcDbEntity
  8
0
100
AcDbCircle
 62
7
  6
CONTINUOUS
 10
272.0100885087
 20
74.3825086044
 40
1.7
  0
CIRCLE
  5
405
100
AcDbEntity
  8
0
100
AcDbCircle
 62
7
  6
CONTINUOUS
 10
334.1286908709
 20
76.1866424627
 40
1.7
  0
CIRCLE
  5
406
100
AcDbEntity
  8
0
100
AcDbCircle
 62
7
  6
CONTINUOUS
 10
334.1286908709
 20
-239.8133575373
 40
1.7
  0
CIRCLE
  5
407
100
AcDbEntity
  8
0
100
AcDbCircle
 62
7
  6
CONTINUOUS
 10
227.6763189101
 20
-104.3636802306
 40
1.75
  0
CIRCLE
  5
408
100
AcDbEntity
  8
0
100
AcDbCircle
 62
7
  6
CONTINUOUS
 10
227.2086023747
 20
-114.6534440102
 40
1.75
  0
CIRCLE
  5
409
100
AcDbEntity
  8
0
100
AcDbCircle
 62
7
  6
CONTINUOUS
 10
227.2086023747
 20
-124.4754912543
 40
1.75
  0
CIRCLE
  5
40A
100
AcDbEntity
  8
0
100
AcDbCircle
 62
7
  6
CONTINUOUS
 10
210.8385236345
 20
-104.3636802306
 40
3.5
  0
CIRCLE
  5
40B
100
AcDbEntity
  8
0
100
AcDbCircle
 62
7
  6
CONTINUOUS
 10
210.8385236345
 20
-104.3636802306
 40
1.75
  0
CIRCLE
  5
40C
100
AcDbEntity
  8
0
100
AcDbCircle
 62
7
  6
CONTINUOUS
 10
210.8385236345
 20
-115.1211605456
 40
3.5
  0
CIRCLE
  5
40D
100
AcDbEntity
  8
0
100
AcDbCircle
 62
7
  6
CONTINUOUS
 10
210.8385236345
 20
-115.1211605456
 40
1.75
  0
CIRCLE
  5
40E
100
AcDbEntity
  8
0
100
AcDbCircle
 62
7
  6
CONTINUOUS
 10
200.9655888314
 20
-104.0755668448
 40
3.5
  0
CIRCLE
  5
40F
100
AcDbEntity
  8
0
100
AcDbCircle
 62
7
  6
CONTINUOUS
 10
200.9655888314
 20
-104.0755668448
 40
1.75
  0
CIRCLE
  5
410
100
AcDbEntity
  8
0
100
AcDbCircle
 62
7
  6
CONTINUOUS
 10
201.7318956031
 20
-114.803861648
 40
3.5
  0
CIRCLE
  5
411
100
AcDbEntity
  8
0
100
AcDbCircle
 62
7
  6
CONTINUOUS
 10
201.7318956031
 20
-114.803861648
 40
1.75
  0
CIRCLE
  5
412
100
AcDbEntity
  8
0
100
AcDbCircle
 62
7
  6
CONTINUOUS
 10
191.5783308786
 20
-104.2671435377
 40
3.5
  0
CIRCLE
  5
413
100
AcDbEntity
  8
0
100
AcDbCircle
 62
7
  6
CONTINUOUS
 10
191.5783308786
 20
-104.2671435377
 40
1.75
  0
CIRCLE
  5
414
100
AcDbEntity
  8
0
100
AcDbCircle
 62
7
  6
CONTINUOUS
 10
191.7699075716
 20
-114.6122849551
 40
3.5
  0
CIRCLE
  5
415
100
AcDbEntity
  8
0
100
AcDbCircle
 62
7
  6
CONTINUOUS
 10
191.7699075716
 20
-114.6122849551
 40
1.75
  0
CIRCLE
  5
416
100
AcDbEntity
  8
0
100
AcDbCircle
 62
7
  6
CONTINUOUS
 10
182.1910729259
 20
-105.0334503094
 40
3.5
  0
CIRCLE
  5
417
100
AcDbEntity
  8
0
100
AcDbCircle
 62
7
  6
CONTINUOUS
 10
182.1910729259
 20
-105.0334503094
 40
1.75
  0
CIRCLE
  5
418
100
AcDbEntity
  8
0
100
AcDbCircle
 62
7
  6
CONTINUOUS
 10
183.1489563905
 20
-115.3785917267
 40
3.5
  0
CIRCLE
  5
419
100
AcDbEntity
  8
0
100
AcDbCircle
 62
7
  6
CONTINUOUS
 10
183.1489563905
 20
-115.3785917267
 40
1.75
  0
CIRCLE
  5
41A
100
AcDbEntity
  8
0
100
AcDbCircle
 62
7
  6
CONTINUOUS
 10
212.843343792
 20
-124.1911196007
 40
3.5
  0
CIRCLE
  5
41B
100
AcDbEntity
  8
0
100
AcDbCircle
 62
7
  6
CONTINUOUS
 10
212.843343792
 20
-124.1911196007
 40
1.75
  0
CIRCLE
  5
41C
100
AcDbEntity
  8
0
100
AcDbCircle
 62
7
  6
CONTINUOUS
 10
202.8813557605
 20
-125.1490030653
 40
3.5
  0
CIRCLE
  5
41D
100
AcDbEntity
  8
0
100
AcDbCircle
 62
7
  6
CONTINUOUS
 10
202.8813557605
 20
-125.1490030653
 40
1.75
  0
CIRCLE
  5
41E
100
AcDbEntity
  8
0
100
AcDbCircle
 62
7
  6
CONTINUOUS
 10
192.3446376503
 20
-124.5742729865
 40
3.5
  0
CIRCLE
  5
41F
100
AcDbEntity
  8
0
100
AcDbCircle
 62
7
  6
CONTINUOUS
 10
192.3446376503
 20
-124.5742729865
 40
1.75
  0
CIRCLE
  5
420
100
AcDbEntity
  8
0
100
AcDbCircle
 62
7
  6
CONTINUOUS
 10
182.9573796975
 20
-126.1068865299
 40
3.5
  0
CIRCLE
  5
421
100
AcDbEntity
  8
0
100
AcDbCircle
 62
7
  6
CONTINUOUS
 10
182.9573796975
 20
-126.1068865299
 40
1.75
  0
CIRCLE
  5
422
100
AcDbEntity
  8
0
100
AcDbCircle
 62
7
  6
CONTINUOUS
 10
212.4601904062
 20
-134.727837711
 40
3.5
  0
CIRCLE
  5
423
100
AcDbEntity
  8
0
100
AcDbCircle
 62
7
  6
CONTINUOUS
 10
212.4601904062
 20
-134.727837711
 40
1.75
  0
CIRCLE
  5
424
100
AcDbEntity
  8
0
100
AcDbCircle
 62
7
  6
CONTINUOUS
 10
202.1150489889
 20
-136.0688745614
 40
3.5
  0
CIRCLE
  5
425
100
AcDbEntity
  8
0
100
AcDbCircle
 62
7
  6
CONTINUOUS
 10
202.1150489889
 20
-136.0688745614
 40
1.75
  0
CIRCLE
  5
426
100
AcDbEntity
  8
0
100
AcDbCircle
 62
7
  6
CONTINUOUS
 10
192.3446376503
 20
-136.2604512543
 40
3.5
  0
CIRCLE
  5
427
100
AcDbEntity
  8
0
100
AcDbCircle
 62
7
  6
CONTINUOUS
 10
192.3446376503
 20
-136.2604512543
 40
1.75
  0
CIRCLE
  5
428
100
AcDbEntity
  8
0
100
AcDbCircle
 62
7
  6
CONTINUOUS
 10
182.5742263117
 20
-137.0267580259
 40
3.5
  0
CIRCLE
  5
429
100
AcDbEntity
  8
0
100
AcDbCircle
 62
7
  6
CONTINUOUS
 10
182.5742263117
 20
-137.0267580259
 40
1.75
  0
ENDSEC
  0
SECTION
  2
OBJECTS
  0
DICTIONARY
  5
C
100
AcDbDictionary
280
0
281
1
  3
ACAD_GROUP
350
D
  3
ACAD_MLINESTYLE
350
17
  3
ACAD_LAYOUT
350
1A
  3
ACAD_PLOTSETTINGS
350
19
  3
ACAD_PLOTSTYLENAME
350
E
  0
DICTIONARY
  5
D
102
{ACAD_REACTORS
330
C
102
}
100
AcDbDictionary
280
0
281
1
  0
ACDBDICTIONARYWDFLT
  5
E
102
{ACAD_REACTORS
330
C
102
}
100
AcDbDictionary
281
1
  3
Normal
350
F
100
AcDbDictionaryWithDefault
340
F
  0
DICTIONARY
  5
17
102
{ACAD_REACTORS
330
C
102
}
100
AcDbDictionary
280
0
281
1
  3
Standard
350
18
  0
DICTIONARY
  5
19
102
{ACAD_REACTORS
330
C
102
}
100
AcDbDictionary
281
1
  0
DICTIONARY
  5
1A
102
{ACAD_REACTORS
330
C
102
}
100
AcDbDictionary
281
1
  3
Model
350
42A
  3
Layout1
350
42B
  0
ACDBPLACEHOLDER
  5
F
102
{ACAD_REACTORS
330
E
102
}
  0
MLINESTYLE
  5
18
102
{ACAD_REACTORS
330
17
102
}
100
AcDbMlineStyle
  2
STANDARD
 70
0
  3

 62
256
 51
90.0
 52
90.0
 71
2
 49
0.5
 62
256
  6
BYLAYER
 49
-0.5
 62
256
  6
BYLAYER
  0
LAYOUT
  5
42A
102
{ACAD_REACTORS
330
1A
102
}
100
AcDbPlotSettings
  1

  2
none_device
  4

  6

 40
0.0
 41
0.0
 42
0.0
 43
0.0
 44
210.0
 45
297.0
 46
0.0
 47
0.0
 48
0.0
 49
0.0
140
0.0
141
0.0
142
1.0
143
1.0
 70
1024
 72
1
 73
0
 74
0
  7

 75
0
147
1.0
148
0.0
149
0.0
100
AcDbLayout
  1
Model
 70
0
 71
0
 10
0.0
 20
0.0
 11
210.0
 21
297.0
 12
0.0
 22
0.0
 32
0.0
 14
0.0
 24
0.0
 34
0.0
 15
0.0
 25
0.0
 35
0.0
146
0.0
 13
0.0
 23
0.0
 33
0.0
 16
1.0
 26
0.0
 36
0.0
 17
0.0
 27
1.0
 37
0.0
 76
0
330
20F
345
0
346
0
  0
LAYOUT
  5
42B
102
{ACAD_REACTORS
330
1A
102
}
100
AcDbPlotSettings
  1

  2
none_device
  4

  6

 40
0.0
 41
0.0
 42
0.0
 43
0.0
 44
210.0
 45
297.0
 46
0.0
 47
0.0
 48
0.0
 49
0.0
140
0.0
141
0.0
142
1.0
143
1.0
 70
0
 72
1
 73
0
 74
0
  7

 75
0
147
1.0
148
0.0
149
0.0
100
AcDbLayout
  1
Layout1
 70
0
 71
1
 10
0.0
 20
0.0
 11
210.0
 21
297.0
 12
0.0
 22
0.0
 32
0.0
 14
0.0
 24
0.0
 34
0.0
 15
0.0
 25
0.0
 35
0.0
146
0.0
 13
0.0
 23
0.0
 33
0.0
 16
1.0
 26
0.0
 36
0.0
 17
0.0
 27
1.0
 37
0.0
 76
0
330
210
345
0
346
0
  0
ENDSEC
  0
EOF
